<!DOCTYPE svg PUBLIC "-//W3C//DTD SVG 1.1//EN" "http://www.w3.org/Graphics/SVG/1.1/DTD/svg11.dtd">

<!-- Uploaded to: SVG Repo, www.svgrepo.com, Transformed by: SVG Repo Mixer Tools -->
<svg width="24" height="24" viewBox="0 0 24 24" xmlns="http://www.w3.org/2000/svg" fill="#8B1DB8">

<g id="SVGRepo_bgCarrier" stroke-width="0"/>

<g id="SVGRepo_tracerCarrier" stroke-linecap="round" stroke-linejoin="round"/>

<g id="SVGRepo_iconCarrier"> <path d="M3 8l8.44992 11.6333c.28303.8553.424545 1.283 1.11785 1.4492.6128.1468 1.2516.1468 1.8644 0 .6933-.1662 1.3349-.5939 2.6179-1.4492L21 8M6.2 19h11.6c1.1201 0 1.6802 0 2.108-.218.3763-.1917.6823-.4977.874-.874.218-.4278.218-.9879.218-2.108V8.2c0-1.1201 0-1.6802-.218-2.108-.1917-.3763-.4977-.6823-.874-.874C19.4802 5 18.9201 5 17.8 5H6.2c-1.1201 0-1.6802 0-2.108.218-.3763.1917-.6823.4977-.874.874C3 6.5198 3 7.0799 3 8.2v7.6c0 1.1201 0 1.6802.218 2.108.1917.3763.4977.6823.874.874.4278.218.9879.218 2.108.218z" stroke="#8B1DB8" stroke-width="2" stroke-linecap="round" stroke-linejoin="round"/> </g>

</svg>