<svg width="342" height="539" viewBox="0 0 342 539" fill="none" xmlns="http://www.w3.org/2000/svg">
<path fill-rule="evenodd" clip-rule="evenodd" d="M0.108551 438.817L0.0839844 425.98C0.0839844 425.98 170.618 340.915 171.892 341.643L341.586 427.634V439.21C341.586 439.21 341.586 440.864 339.932 441.691L173.257 537.811C171.983 538.539 169.982 538.539 168.708 537.811L1.10941 441.274C-0.164411 440.546 0.108551 438.817 0.108551 438.817Z" fill="#4E4E4E"/>
<path fill-rule="evenodd" clip-rule="evenodd" d="M0.911002 424.326L168.882 328.954C170.156 328.226 172.158 328.226 173.432 328.954L340.737 425.98C342.011 426.708 342.011 427.891 340.737 428.619L174.888 523.94C173.614 524.667 171.612 524.667 170.338 523.94L1.00199 426.965C-0.271831 426.237 -0.362818 425.054 0.911002 424.326Z" fill="#606060"/>
<path d="M135.356 384.556L172.814 363.152L208.132 382.416L171.744 404.891L135.356 384.556Z" fill="#1D1D1D" fill-opacity="0.05"/>
<path d="M199.733 424.173L236.121 402.769L272.509 423.103L236.121 444.507L199.733 424.173Z" fill="#1D1D1D" fill-opacity="0.05"/>
<path d="M69.3289 425.823L106.787 404.419L142.104 423.683L105.717 446.158L69.3289 425.823Z" fill="#1D1D1D" fill-opacity="0.05"/>
<path d="M133.706 463.789L171.164 442.385L206.481 461.649L170.093 484.124L133.706 463.789Z" fill="#1D1D1D" fill-opacity="0.05"/>
<path d="M135.356 318.529L172.814 297.124L208.132 316.388L171.744 338.863L135.356 318.529Z" fill="#F67C7C"/>
<path d="M135.357 318.528V361.337L171.744 382.742V338.863L135.357 318.528Z" fill="#DE2424"/>
<path d="M171.744 338.863L208.132 316.388V360.481L171.744 382.742V338.863Z" fill="#F32626"/>
<path d="M199.733 358.145L236.121 336.74L272.509 357.075L236.121 378.479L199.733 358.145Z" fill="#06AFFF"/>
<path d="M199.733 358.144V400.953L236.121 422.358V378.478L199.733 358.144Z" fill="#2F80ED"/>
<path d="M236.121 378.479L272.509 357.075V400.098L236.121 422.359V378.479Z" fill="#3C8AFE"/>
<path d="M56.0007 370.655L96.3023 347.625L134.301 368.352L95.1509 392.533L56.0007 370.655Z" fill="#9A5CFC"/>
<path d="M55.9999 370.655V416.714L95.1501 439.743V392.533L55.9999 370.655Z" fill="#7421F7"/>
<path d="M95.1506 392.534L134.301 368.353V415.793L95.1506 439.744V392.534Z" fill="#8338F9"/>
<path d="M133.706 397.762L171.164 376.357L206.481 395.621L170.093 418.096L133.706 397.762Z" fill="#FFEE50"/>
<path d="M133.706 397.761V440.57L170.093 461.975V418.096L133.706 397.761Z" fill="#CCBA11"/>
<path d="M170.093 418.096L206.481 395.622V439.715L170.093 461.976V418.096Z" fill="#FFD215"/>
<path d="M139.001 267.5L173.126 248L205.301 265.55L172.151 286.025L139.001 267.5Z" fill="#9A5CFC"/>
<path d="M139 267.5V306.5L172.15 326V286.025L139 267.5Z" fill="#7421F7"/>
<path d="M172.151 286.025L205.301 265.55V305.721L172.151 326.001V286.025Z" fill="#8338F9"/>
<path d="M199.733 292.117L237.191 270.713L272.509 289.977L236.121 312.452L199.733 292.117Z" fill="#FFEE50"/>
<path d="M199.733 292.117V334.926L236.121 356.33V312.451L199.733 292.117Z" fill="#CCBA11"/>
<path d="M236.121 312.451L272.509 289.977V334.07L236.121 356.331V312.451Z" fill="#FFD215"/>
<path d="M1.65073 344.94L39.1086 323.535L74.4261 342.799L38.0384 365.274L1.65073 344.94Z" fill="#F67C7C"/>
<path d="M1.65089 344.939V387.749L38.0386 409.153V365.274L1.65089 344.939Z" fill="#DE2424"/>
<path d="M38.0385 365.274L74.4262 342.799V386.893L38.0385 409.153V365.274Z" fill="#F32626"/>
<path d="M135.356 336.686L171.744 315.282L208.132 335.616L171.744 357.021L135.356 336.686Z" fill="#06AFFF"/>
<path d="M135.357 336.686V379.495L171.744 400.9V357.02L135.357 336.686Z" fill="#2F80ED"/>
<path d="M171.744 357.021L208.132 335.617V378.64L171.744 400.901V357.021Z" fill="#3C8AFE"/>
<path d="M206.481 191.426L169.023 170.021L133.706 189.285L170.093 211.76L206.481 191.426Z" fill="#F67C7C"/>
<path d="M206.481 191.425V234.234L170.093 255.638V211.759L206.481 191.425Z" fill="#DE2424"/>
<path d="M170.093 211.76L133.706 189.285V233.378L170.093 255.639V211.76Z" fill="#F32626"/>
<path d="M142.104 231.042L105.716 209.638L69.3287 229.972L105.716 251.377L142.104 231.042Z" fill="#06AFFF"/>
<path d="M142.104 231.042V273.851L105.716 295.255V251.376L142.104 231.042Z" fill="#2F80ED"/>
<path d="M105.716 251.376L69.3288 229.972V272.995L105.716 295.255V251.376Z" fill="#3C8AFE"/>
<path d="M251.001 211.831L293.361 187.625L333.301 209.411L292.151 234.827L251.001 211.831Z" fill="#9A5CFC"/>
<path d="M251 211.832V260.243L292.15 284.449V234.827L251 211.832Z" fill="#7421F7"/>
<path d="M292.151 234.827L333.301 209.411V259.275L292.151 284.45V234.827Z" fill="#8338F9"/>
<path d="M287.365 325.131L249.907 303.727L214.589 322.991L250.977 345.465L287.365 325.131Z" fill="#FFEE50"/>
<path d="M287.365 325.13V367.939L250.977 389.344V345.465L287.365 325.13Z" fill="#CCBA11"/>
<path d="M250.977 345.465L214.589 322.991V367.084L250.977 389.345V345.465Z" fill="#FFD215"/>
<path d="M206.481 128.699L169.023 107.295L133.706 126.559L170.093 149.034L206.481 128.699Z" fill="#42E7AA"/>
<path d="M206.481 128.7V171.509L170.093 192.913V149.034L206.481 128.7Z" fill="#16A568"/>
<path d="M170.093 149.034L133.706 126.56V170.653L170.093 192.914V149.034Z" fill="#17CE8A"/>
<path d="M142.104 165.014L104.646 143.61L69.3288 162.874L105.716 185.349L142.104 165.014Z" fill="#FFEE50"/>
<path d="M142.104 165.015V207.824L105.716 229.228V185.349L142.104 165.015Z" fill="#CCBA11"/>
<path d="M105.717 185.349L69.3289 162.875V206.968L105.717 229.229V185.349Z" fill="#FFD215"/>
<path d="M272.509 169.967L235.051 148.562L199.733 167.826L236.121 190.301L272.509 169.967Z" fill="#F67C7C"/>
<path d="M272.509 169.967V212.776L236.121 234.18V190.301L272.509 169.967Z" fill="#DE2424"/>
<path d="M236.121 190.301L199.733 167.827V211.92L236.121 234.181V190.301Z" fill="#F32626"/>
<path d="M206.481 209.583L170.093 188.179L133.706 208.513L170.093 229.918L206.481 209.583Z" fill="#06AFFF"/>
<path d="M206.481 209.583V252.392L170.093 273.796V229.917L206.481 209.583Z" fill="#2F80ED"/>
<path d="M170.093 229.918L133.706 208.513V251.536L170.093 273.797V229.918Z" fill="#3C8AFE"/>
<path fill-rule="evenodd" clip-rule="evenodd" d="M0.108627 110.41L0.0840607 97.5728C0.0840607 97.5728 170.619 12.5077 171.892 13.2356L341.586 99.2266V110.803C341.586 110.803 341.586 112.457 339.932 113.284L173.257 209.404C171.983 210.132 169.982 210.132 168.708 209.404L1.10949 112.867C-0.164334 112.139 0.108627 110.41 0.108627 110.41Z" fill="#606060"/>
<path fill-rule="evenodd" clip-rule="evenodd" d="M0.911063 95.9182L168.882 0.545923C170.156 -0.181974 172.158 -0.181974 173.432 0.545923L340.737 97.5719C342.011 98.2998 342.011 99.4827 340.737 100.211L174.888 195.531C173.614 196.259 171.612 196.259 170.338 195.531L1.00205 98.5568C-0.27177 97.8289 -0.362757 96.6461 0.911063 95.9182Z" fill="#4E4E4E"/>
<path d="M147.001 468.844L172.978 454L197.471 467.36L172.236 482.946L147.001 468.844Z" fill="#9A5CFC"/>
<path d="M147 468.844V498.533L172.235 513.377V482.946L147 468.844Z" fill="#7421F7"/>
<path d="M172.235 482.946L197.471 467.36V497.939L172.235 513.377V482.946Z" fill="#8338F9"/>
</svg>
