<svg width="1425" height="2061" viewBox="0 0 1425 2061" fill="none" xmlns="http://www.w3.org/2000/svg">
	<path d="M168.001 777.235L338.369 679.882L499.001 767.5L333.501 869.72L168.001 777.235Z" fill="#8D6EFF" />
	<path d="M168.001 777.237V971.943L333.501 1069.3V869.722L168.001 777.237Z" fill="url(#paint0_linear_320_983)" />
	<path d="M333.498 869.716L498.998 767.496V968.043L333.498 1069.29V869.716Z" fill="#6C47F6" />
	<g opacity="0.2">
		<path d="M0 1079.37L124.799 1008.06L242.466 1072.24L121.233 1147.12L0 1079.37Z" fill="url(#paint1_linear_320_983)" />
		<path d="M0 1079.37V1222L121.233 1293.31V1147.12L0 1079.37Z" fill="url(#paint2_linear_320_983)" />
		<path d="M121.232 1147.12L242.465 1072.24V1219.15L121.232 1293.31V1147.12Z" fill="url(#paint3_linear_320_983)" />
	</g>
	<g opacity="0.2">
		<path d="M212.001 491.622L274.237 456.059L332.916 488.066L272.459 525.407L212.001 491.622Z" fill="url(#paint4_linear_320_983)" />
		<path d="M212.001 491.622V562.748L272.459 598.312V525.407L212.001 491.622Z" fill="url(#paint5_linear_320_983)" />
		<path d="M272.458 525.407L332.916 488.065V561.326L272.458 598.312V525.407Z" fill="url(#paint6_linear_320_983)" />
	</g>
	<path d="M161 1404.56L268.625 1343.06L370.099 1398.41L265.55 1462.98L161 1404.56Z" fill="#FFEE50" />
	<path d="M161 1404.56V1527.56L265.55 1589.06V1462.98L161 1404.56Z" fill="url(#paint7_linear_320_983)" />
	<path d="M265.55 1462.98L370.1 1398.41V1525.1L265.55 1589.06V1462.98Z" fill="#FFD215" />
	<path d="M266 1658.9L300.712 1639.06L333.441 1656.91L299.721 1677.74L266 1658.9Z" fill="#F67C7C" />
	<path d="M266 1658.89V1698.57L299.721 1718.4V1677.74L266 1658.89Z" fill="url(#paint8_linear_320_983)" />
	<path d="M299.72 1677.74L333.44 1656.91V1697.77L299.72 1718.4V1677.74Z" fill="#F32626" />
	<g opacity="0.2">
		<path d="M242 1886.66L316.851 1843.88L387.425 1882.38L314.712 1927.29L242 1886.66Z" fill="url(#paint9_linear_320_983)" />
		<path d="M242 1886.65V1972.2L314.712 2014.97V1927.28L242 1886.65Z" fill="url(#paint10_linear_320_983)" />
		<path d="M314.712 1927.29L387.424 1882.38V1970.49L314.712 2014.97V1927.29Z" fill="url(#paint11_linear_320_983)" />
	</g>
	<path d="M475 1885.72L574 1827.48L673 1882.81L574 1941.04L475 1885.72Z" fill="#06AFFF" />
	<path d="M475 1885.72V2002.19L574 2060.42V1941.04L475 1885.72Z" fill="url(#paint12_linear_320_983)" />
	<path d="M574 1941.04L673 1882.81V1999.86L574 2060.43V1941.04Z" fill="#3C8AFE" />
	<g opacity="0.2">
		<path d="M727 1852.24L807.808 1806.06L883.999 1847.62L805.5 1896.1L727 1852.24Z" fill="url(#paint13_linear_320_983)" />
		<path d="M727 1852.24V1944.59L805.5 1990.76V1896.1L727 1852.24Z" fill="url(#paint14_linear_320_983)" />
		<path d="M805.5 1896.1L884 1847.62V1942.74L805.5 1990.76V1896.1Z" fill="url(#paint15_linear_320_983)" />
	</g>
	<g opacity="0.3">
		<path d="M972 1876.3L1047.66 1833.06L1119 1871.97L1045.5 1917.37L972 1876.3Z" fill="url(#paint16_linear_320_983)" />
		<path d="M972 1876.29V1962.76L1045.5 2006V1917.37L972 1876.29Z" fill="url(#paint17_linear_320_983)" />
		<path d="M1045.5 1917.37L1119 1871.97V1961.04L1045.5 2006V1917.37Z" fill="url(#paint18_linear_320_983)" />
	</g>
	<g opacity="0.2">
		<path d="M826 82.9444L901.049 40.0596L971.809 78.6559L898.905 123.685L826 82.9444Z" fill="url(#paint19_linear_320_983)" />
		<path d="M826 82.9426V168.712L898.904 211.597V123.683L826 82.9426Z" fill="url(#paint20_linear_320_983)" />
		<path d="M898.905 123.686L971.809 78.6567V166.999L898.905 211.6V123.686Z" fill="url(#paint21_linear_320_983)" />
	</g>
	<path d="M1198 1196.82L1314.84 1130.06L1425 1190.15L1311.5 1260.25L1198 1196.82Z" fill="#F67C7C" />
	<path d="M1198 1196.83V1330.35L1311.5 1397.12V1260.25L1198 1196.83Z" fill="url(#paint22_linear_320_983)" />
	<path d="M1311.5 1260.25L1425 1190.15V1327.69L1311.5 1397.12V1260.25Z" fill="#F32626" />
	<g opacity="0.3">
		<path d="M1113 804.118L1221.6 742.059L1324 797.912L1218.5 863.073L1113 804.118Z" fill="url(#paint23_linear_320_983)" />
		<path d="M1113 804.117V928.235L1218.5 990.293V863.073L1113 804.117Z" fill="url(#paint24_linear_320_983)" />
		<path d="M1218.5 863.073L1324 797.912V925.753L1218.5 990.294V863.073Z" fill="url(#paint25_linear_320_983)" />
	</g>
	<path d="M1212 965.139L1289.14 921.059L1361.87 960.731L1286.93 1007.01L1212 965.139Z" fill="#FFEE50" />
	<path d="M1212 965.139V1053.3L1286.93 1097.38V1007.01L1212 965.139Z" fill="url(#paint26_linear_320_983)" />
	<path d="M1286.94 1007.01L1361.87 960.731V1051.53L1286.94 1097.38V1007.01Z" fill="#FFD215" />
	<path d="M935.004 359.176L1160.96 230.06L1374 346.264L1154.5 481.837L935.004 359.176Z" fill="#9A5CFC" />
	<path d="M935 359.177V617.41L1154.5 746.526V481.837L935 359.177Z" fill="#7421F7" />
	<path d="M1154.5 481.838L1374 346.265V612.245L1154.5 746.527V481.838Z" fill="#8338F9" />
	<path d="M1113 1489.71L1222.63 1427.06L1326 1483.44L1219.5 1549.22L1113 1489.71Z" fill="#9A5CFC" />
	<path d="M1113 1489.71V1615L1219.5 1677.65V1549.22L1113 1489.71Z" fill="#7421F7" />
	<path d="M1219.5 1549.22L1326 1483.44V1612.49L1219.5 1677.65V1549.22Z" fill="#8338F9" />
	<path d="M1075 84.0008L1182 21.0596L1289 80.8537L1182 143.795L1075 84.0008Z" fill="#06AFFF" />
	<path d="M1075 84.0017V209.884L1182 272.825V143.796L1075 84.0017Z" fill="url(#paint27_linear_320_983)" />
	<path d="M1182 143.796L1289 80.8552V207.367L1182 272.826V143.796Z" fill="#3C8AFE" />
	<path d="M181 93.5294L344.676 0L499 84.1765L340 182.382L181 93.5294Z" fill="#F67C7C" />
	<path d="M181.001 93.5312V280.59L340.001 374.119V182.384L181.001 93.5312Z" fill="url(#paint28_linear_320_983)" />
	<path d="M339.999 182.385L498.999 84.1794V276.85L339.999 374.121V182.385Z" fill="#F32626" />
	<defs>
		<linearGradient id="paint0_linear_320_983" x1="250.661" y1="777.289" x2="250.661" y2="1069.32" gradientUnits="userSpaceOnUse">
			<stop stop-color="#593FBA" />
			<stop offset="0.99" stop-color="#342569" />
		</linearGradient>
		<linearGradient id="paint1_linear_320_983" x1="121.238" y1="1008.06" x2="121.238" y2="1147.14" gradientUnits="userSpaceOnUse">
			<stop stop-color="#E8E8E8" />
			<stop offset="1" stop-color="#727272" />
		</linearGradient>
		<linearGradient id="paint2_linear_320_983" x1="60.6191" y1="1079.37" x2="60.6191" y2="1293.34" gradientUnits="userSpaceOnUse">
			<stop stop-color="#E8E8E8" />
			<stop offset="1" stop-color="#727272" />
		</linearGradient>
		<linearGradient id="paint3_linear_320_983" x1="181.852" y1="1072.24" x2="181.852" y2="1293.34" gradientUnits="userSpaceOnUse">
			<stop stop-color="#E8E8E8" />
			<stop offset="1" stop-color="#727272" />
		</linearGradient>
		<linearGradient id="paint4_linear_320_983" x1="272.461" y1="456.059" x2="272.461" y2="525.418" gradientUnits="userSpaceOnUse">
			<stop stop-color="#E8E8E8" />
			<stop offset="1" stop-color="#727272" />
		</linearGradient>
		<linearGradient id="paint5_linear_320_983" x1="242.231" y1="491.622" x2="242.231" y2="598.328" gradientUnits="userSpaceOnUse">
			<stop stop-color="#E8E8E8" />
			<stop offset="1" stop-color="#727272" />
		</linearGradient>
		<linearGradient id="paint6_linear_320_983" x1="302.689" y1="488.065" x2="302.689" y2="598.328" gradientUnits="userSpaceOnUse">
			<stop stop-color="#E8E8E8" />
			<stop offset="1" stop-color="#727272" />
		</linearGradient>
		<linearGradient id="paint7_linear_320_983" x1="213.218" y1="1404.59" x2="213.218" y2="1589.08" gradientUnits="userSpaceOnUse">
			<stop stop-color="#FFCB6A" />
			<stop offset="1" stop-color="#957437" />
		</linearGradient>
		<linearGradient id="paint8_linear_320_983" x1="282.861" y1="1658.89" x2="282.861" y2="1718.41" gradientUnits="userSpaceOnUse">
			<stop stop-color="#FF5256" />
			<stop offset="1" stop-color="#8B2B2D" />
		</linearGradient>
		<linearGradient id="paint9_linear_320_983" x1="314.716" y1="1843.88" x2="314.716" y2="1927.3" gradientUnits="userSpaceOnUse">
			<stop stop-color="#E8E8E8" />
			<stop offset="1" stop-color="#727272" />
		</linearGradient>
		<linearGradient id="paint10_linear_320_983" x1="278.358" y1="1886.65" x2="278.358" y2="2014.99" gradientUnits="userSpaceOnUse">
			<stop stop-color="#E8E8E8" />
			<stop offset="1" stop-color="#727272" />
		</linearGradient>
		<linearGradient id="paint11_linear_320_983" x1="351.07" y1="1882.38" x2="351.07" y2="2014.99" gradientUnits="userSpaceOnUse">
			<stop stop-color="#E8E8E8" />
			<stop offset="1" stop-color="#727272" />
		</linearGradient>
		<linearGradient id="paint12_linear_320_983" x1="524.446" y1="1885.75" x2="524.446" y2="2060.44" gradientUnits="userSpaceOnUse">
			<stop stop-color="#2F80ED" />
			<stop offset="0.99" stop-color="#1B447A" />
		</linearGradient>
		<linearGradient id="paint13_linear_320_983" x1="805.503" y1="1806.06" x2="805.503" y2="1896.12" gradientUnits="userSpaceOnUse">
			<stop stop-color="#E8E8E8" />
			<stop offset="1" stop-color="#727272" />
		</linearGradient>
		<linearGradient id="paint14_linear_320_983" x1="766.252" y1="1852.24" x2="766.252" y2="1990.79" gradientUnits="userSpaceOnUse">
			<stop stop-color="#E8E8E8" />
			<stop offset="1" stop-color="#727272" />
		</linearGradient>
		<linearGradient id="paint15_linear_320_983" x1="844.752" y1="1847.62" x2="844.752" y2="1990.79" gradientUnits="userSpaceOnUse">
			<stop stop-color="#E8E8E8" />
			<stop offset="1" stop-color="#727272" />
		</linearGradient>
		<linearGradient id="paint16_linear_320_983" x1="1045.5" y1="1833.06" x2="1045.5" y2="1917.38" gradientUnits="userSpaceOnUse">
			<stop stop-color="#E8E8E8" />
			<stop offset="1" stop-color="#727272" />
		</linearGradient>
		<linearGradient id="paint17_linear_320_983" x1="1008.75" y1="1876.29" x2="1008.75" y2="2006.02" gradientUnits="userSpaceOnUse">
			<stop stop-color="#E8E8E8" />
			<stop offset="1" stop-color="#727272" />
		</linearGradient>
		<linearGradient id="paint18_linear_320_983" x1="1082.25" y1="1871.97" x2="1082.25" y2="2006.02" gradientUnits="userSpaceOnUse">
			<stop stop-color="#E8E8E8" />
			<stop offset="1" stop-color="#727272" />
		</linearGradient>
		<linearGradient id="paint19_linear_320_983" x1="898.908" y1="40.0596" x2="898.908" y2="123.698" gradientUnits="userSpaceOnUse">
			<stop stop-color="#E8E8E8" />
			<stop offset="1" stop-color="#727272" />
		</linearGradient>
		<linearGradient id="paint20_linear_320_983" x1="862.454" y1="82.9426" x2="862.454" y2="211.616" gradientUnits="userSpaceOnUse">
			<stop stop-color="#E8E8E8" />
			<stop offset="1" stop-color="#727272" />
		</linearGradient>
		<linearGradient id="paint21_linear_320_983" x1="935.358" y1="78.6567" x2="935.358" y2="211.62" gradientUnits="userSpaceOnUse">
			<stop stop-color="#E8E8E8" />
			<stop offset="1" stop-color="#727272" />
		</linearGradient>
		<linearGradient id="paint22_linear_320_983" x1="1254.75" y1="1196.83" x2="1254.75" y2="1397.15" gradientUnits="userSpaceOnUse">
			<stop stop-color="#FF5256" />
			<stop offset="1" stop-color="#8B2B2D" />
		</linearGradient>
		<linearGradient id="paint23_linear_320_983" x1="1218.51" y1="742.059" x2="1218.51" y2="863.092" gradientUnits="userSpaceOnUse">
			<stop stop-color="#E8E8E8" />
			<stop offset="1" stop-color="#727272" />
		</linearGradient>
		<linearGradient id="paint24_linear_320_983" x1="1165.75" y1="804.117" x2="1165.75" y2="990.321" gradientUnits="userSpaceOnUse">
			<stop stop-color="#E8E8E8" />
			<stop offset="1" stop-color="#727272" />
		</linearGradient>
		<linearGradient id="paint25_linear_320_983" x1="1271.25" y1="797.912" x2="1271.25" y2="990.323" gradientUnits="userSpaceOnUse">
			<stop stop-color="#E8E8E8" />
			<stop offset="1" stop-color="#727272" />
		</linearGradient>
		<linearGradient id="paint26_linear_320_983" x1="1249.43" y1="965.163" x2="1249.43" y2="1097.39" gradientUnits="userSpaceOnUse">
			<stop stop-color="#FFCB6A" />
			<stop offset="1" stop-color="#957437" />
		</linearGradient>
		<linearGradient id="paint27_linear_320_983" x1="1128.44" y1="84.0352" x2="1128.44" y2="272.842" gradientUnits="userSpaceOnUse">
			<stop stop-color="#2F80ED" />
			<stop offset="0.99" stop-color="#1B447A" />
		</linearGradient>
		<linearGradient id="paint28_linear_320_983" x1="260.504" y1="93.5312" x2="260.504" y2="374.162" gradientUnits="userSpaceOnUse">
			<stop stop-color="#FF5256" />
			<stop offset="1" stop-color="#8B2B2D" />
		</linearGradient>
	</defs>
</svg>
