<svg width="461" height="591" viewBox="0 0 461 591" fill="none" xmlns="http://www.w3.org/2000/svg">
<g opacity="0.2">
<path d="M202.88 540.789L231.92 524.194L259.301 539.129L231.091 556.553L202.88 540.789Z" fill="url(#paint0_linear_304_1003)"/>
<path d="M202.88 540.789V573.977L231.091 590.571V556.553L202.88 540.789Z" fill="url(#paint1_linear_304_1003)"/>
<path d="M231.091 556.553L259.301 539.129V573.313L231.091 590.571V556.553Z" fill="url(#paint2_linear_304_1003)"/>
</g>
<g opacity="0.4">
<path d="M202.881 492.124L231.921 475.53L259.301 490.465L231.091 507.889L202.881 492.124Z" fill="url(#paint3_linear_304_1003)"/>
<path d="M202.88 492.124V525.312L231.09 541.907V507.889L202.88 492.124Z" fill="url(#paint4_linear_304_1003)"/>
<path d="M231.091 507.889L259.301 490.465V524.649L231.091 541.907V507.889Z" fill="url(#paint5_linear_304_1003)"/>
</g>
<g opacity="0.6">
<path d="M202.881 439.287L231.921 422.693L259.301 437.628L231.091 455.052L202.881 439.287Z" fill="url(#paint6_linear_304_1003)"/>
<path d="M202.88 439.288V472.476L231.09 489.07V455.052L202.88 439.288Z" fill="url(#paint7_linear_304_1003)"/>
<path d="M231.091 455.052L259.301 437.628V471.812L231.091 489.07V455.052Z" fill="url(#paint8_linear_304_1003)"/>
</g>
<g opacity="0.8">
<path d="M202.881 390.619L231.921 374.025L259.301 388.96L231.091 406.384L202.881 390.619Z" fill="url(#paint9_linear_304_1003)"/>
<path d="M202.88 390.619V423.808L231.09 440.402V406.384L202.88 390.619Z" fill="url(#paint10_linear_304_1003)"/>
<path d="M231.091 406.384L259.301 388.96V423.144L231.091 440.402V406.384Z" fill="url(#paint11_linear_304_1003)"/>
</g>
<path fill-rule="evenodd" clip-rule="evenodd" d="M460 270L230.5 137L1 267.5L1 294L230.5 427.5L460 294L460 270ZM230.5 321L163.5 280.95L230.5 239.5L297 282.745L230.5 321Z" fill="#4E4E4E"/>
<path d="M1 267.5L233 400.5L460 270M1 267.5L230.5 137L460 270M1 267.5L1 294L230.5 427.5L460 294L460 270M163.5 280.95L141 267.5L233 211.5L323.5 267.5L297 282.745M163.5 280.95L230.5 321L297 282.745M163.5 280.95L230.5 239.5L297 282.745" stroke="black"/>
<path d="M287.939 145.39L320.914 126.547L352.005 143.506L319.972 163.291L287.939 145.39Z" fill="white"/>
<path d="M287.939 145.391V209.456L319.972 228.299V163.291L287.939 145.391Z" fill="#F7F7F7"/>
<path d="M319.972 163.291L352.005 143.506V208.702L319.972 228.299V163.291Z" fill="#E9E9EB"/>
<path fill-rule="evenodd" clip-rule="evenodd" d="M302.662 162.798C304.916 162.122 307.733 163.925 308.973 166.968C310.212 170.01 309.311 172.94 307.057 173.729C304.803 174.405 301.986 172.602 300.747 169.56C299.507 166.517 300.409 163.587 302.662 162.798Z" fill="#17CE8A"/>
<path fill-rule="evenodd" clip-rule="evenodd" d="M303.795 162.798C305.371 162.798 309.311 166.94 309.311 170.678C309.311 171.212 306.947 173.831 306.947 173.831L253.929 224.522C253.929 224.522 233.18 225.59 220.462 203.162C210.154 185.006 217.919 167.918 223.14 168.452L301.431 163.586C301.431 163.586 302.219 162.798 303.795 162.798Z" fill="url(#paint12_linear_304_1003)"/>
<g opacity="0.9">
<path d="M202.88 282.168L231.92 265.574L259.301 280.509L231.09 297.932L202.88 282.168Z" fill="url(#paint13_linear_304_1003)"/>
<path d="M202.88 282.168V304.233L231.09 320.827V297.932L202.88 282.168Z" fill="url(#paint14_linear_304_1003)"/>
<path d="M231.09 297.933L259.301 280.509V303.569L231.09 320.827V297.933Z" fill="url(#paint15_linear_304_1003)"/>
</g>
<path d="M202.881 233.502L231.921 216.908L259.301 231.843L231.091 249.267L202.881 233.502Z" fill="url(#paint16_linear_304_1003)"/>
<path d="M202.88 233.502V266.691L231.09 283.285V249.267L202.88 233.502Z" fill="url(#paint17_linear_304_1003)"/>
<path d="M231.091 249.267L259.301 231.843V266.027L231.091 283.285V249.267Z" fill="url(#paint18_linear_304_1003)"/>
<path d="M202.903 180.666L231.942 164.072L259.323 179.007L231.113 196.431L202.903 180.666Z" fill="#F67C7C"/>
<path d="M202.903 180.666V213.854L231.113 230.449V196.431L202.903 180.666Z" fill="#DE2424"/>
<path d="M231.113 196.431L259.323 179.007V213.191L231.113 230.449V196.431Z" fill="#F32626"/>
<path d="M202.881 129.22L231.921 112.625L259.301 127.56L231.091 144.984L202.881 129.22Z" fill="#9A5CFC"/>
<path d="M202.88 129.22V162.408L231.09 179.002V144.984L202.88 129.22Z" fill="#7421F7"/>
<path d="M231.091 144.984L259.301 127.561V161.745L231.091 179.003V144.984Z" fill="#8338F9"/>
<path d="M202.881 73.602L231.921 57.0078L259.301 71.9426L231.091 89.3666L202.881 73.602Z" fill="#FFEE50"/>
<path d="M202.88 73.6021V106.791L231.09 123.385V89.3666L202.88 73.6021Z" fill="#CCBA11"/>
<path d="M231.091 89.3668L259.301 71.9429V106.127L231.091 123.385V89.3668Z" fill="#FFD215"/>
<path d="M202.881 16.5942L231.921 0L259.301 14.9348L231.091 32.3587L202.881 16.5942Z" fill="#06AFFF"/>
<path d="M202.88 16.5942V49.7827L231.09 66.3769V32.3588L202.88 16.5942Z" fill="#2F80ED"/>
<path d="M231.091 32.3585L259.301 14.9346V49.1187L231.091 66.3767V32.3585Z" fill="#3C8AFE"/>
<defs>
<linearGradient id="paint0_linear_304_1003" x1="231.092" y1="524.194" x2="231.092" y2="556.558" gradientUnits="userSpaceOnUse">
<stop stop-color="#E8E8E8"/>
<stop offset="1" stop-color="#727272"/>
</linearGradient>
<linearGradient id="paint1_linear_304_1003" x1="216.986" y1="540.789" x2="216.986" y2="590.579" gradientUnits="userSpaceOnUse">
<stop stop-color="#E8E8E8"/>
<stop offset="1" stop-color="#727272"/>
</linearGradient>
<linearGradient id="paint2_linear_304_1003" x1="245.197" y1="539.129" x2="245.197" y2="590.579" gradientUnits="userSpaceOnUse">
<stop stop-color="#E8E8E8"/>
<stop offset="1" stop-color="#727272"/>
</linearGradient>
<linearGradient id="paint3_linear_304_1003" x1="231.092" y1="475.53" x2="231.092" y2="507.893" gradientUnits="userSpaceOnUse">
<stop stop-color="#E8E8E8"/>
<stop offset="1" stop-color="#727272"/>
</linearGradient>
<linearGradient id="paint4_linear_304_1003" x1="216.986" y1="492.124" x2="216.986" y2="541.914" gradientUnits="userSpaceOnUse">
<stop stop-color="#E8E8E8"/>
<stop offset="1" stop-color="#727272"/>
</linearGradient>
<linearGradient id="paint5_linear_304_1003" x1="245.196" y1="490.465" x2="245.196" y2="541.915" gradientUnits="userSpaceOnUse">
<stop stop-color="#E8E8E8"/>
<stop offset="1" stop-color="#727272"/>
</linearGradient>
<linearGradient id="paint6_linear_304_1003" x1="231.092" y1="422.693" x2="231.092" y2="455.057" gradientUnits="userSpaceOnUse">
<stop stop-color="#E8E8E8"/>
<stop offset="1" stop-color="#727272"/>
</linearGradient>
<linearGradient id="paint7_linear_304_1003" x1="216.986" y1="439.288" x2="216.986" y2="489.078" gradientUnits="userSpaceOnUse">
<stop stop-color="#E8E8E8"/>
<stop offset="1" stop-color="#727272"/>
</linearGradient>
<linearGradient id="paint8_linear_304_1003" x1="245.196" y1="437.628" x2="245.196" y2="489.078" gradientUnits="userSpaceOnUse">
<stop stop-color="#E8E8E8"/>
<stop offset="1" stop-color="#727272"/>
</linearGradient>
<linearGradient id="paint9_linear_304_1003" x1="231.092" y1="374.025" x2="231.092" y2="406.389" gradientUnits="userSpaceOnUse">
<stop stop-color="#E8E8E8"/>
<stop offset="1" stop-color="#727272"/>
</linearGradient>
<linearGradient id="paint10_linear_304_1003" x1="216.986" y1="390.619" x2="216.986" y2="440.409" gradientUnits="userSpaceOnUse">
<stop stop-color="#E8E8E8"/>
<stop offset="1" stop-color="#727272"/>
</linearGradient>
<linearGradient id="paint11_linear_304_1003" x1="245.197" y1="388.96" x2="245.197" y2="440.41" gradientUnits="userSpaceOnUse">
<stop stop-color="#E8E8E8"/>
<stop offset="1" stop-color="#727272"/>
</linearGradient>
<linearGradient id="paint12_linear_304_1003" x1="309.895" y1="162.349" x2="232.34" y2="201.904" gradientUnits="userSpaceOnUse">
<stop stop-color="#17CE8A" stop-opacity="0.46"/>
<stop offset="1" stop-color="#17CE8A" stop-opacity="0"/>
</linearGradient>
<linearGradient id="paint13_linear_304_1003" x1="231.092" y1="265.574" x2="231.092" y2="297.937" gradientUnits="userSpaceOnUse">
<stop stop-color="#E8E8E8"/>
<stop offset="1" stop-color="#727272"/>
</linearGradient>
<linearGradient id="paint14_linear_304_1003" x1="216.986" y1="282.168" x2="216.986" y2="320.833" gradientUnits="userSpaceOnUse">
<stop stop-color="#E8E8E8"/>
<stop offset="1" stop-color="#727272"/>
</linearGradient>
<linearGradient id="paint15_linear_304_1003" x1="245.196" y1="280.509" x2="245.196" y2="320.833" gradientUnits="userSpaceOnUse">
<stop stop-color="#E8E8E8"/>
<stop offset="1" stop-color="#727272"/>
</linearGradient>
<linearGradient id="paint16_linear_304_1003" x1="231.092" y1="216.908" x2="231.092" y2="249.272" gradientUnits="userSpaceOnUse">
<stop stop-color="#E8E8E8"/>
<stop offset="1" stop-color="#727272"/>
</linearGradient>
<linearGradient id="paint17_linear_304_1003" x1="216.986" y1="233.502" x2="216.986" y2="283.293" gradientUnits="userSpaceOnUse">
<stop stop-color="#E8E8E8"/>
<stop offset="1" stop-color="#727272"/>
</linearGradient>
<linearGradient id="paint18_linear_304_1003" x1="245.196" y1="231.843" x2="245.196" y2="283.293" gradientUnits="userSpaceOnUse">
<stop stop-color="#E8E8E8"/>
<stop offset="1" stop-color="#727272"/>
</linearGradient>
</defs>
</svg>
