<svg width="461" height="548" viewBox="0 0 461 548" fill="none" xmlns="http://www.w3.org/2000/svg">
<path fill-rule="evenodd" clip-rule="evenodd" d="M250.441 427.987V531.15H242.076V427.987H250.441Z" fill="#FFD215"/>
<path fill-rule="evenodd" clip-rule="evenodd" d="M246.258 528.063C248.628 528.063 250.44 529.271 250.44 530.652C250.44 532.033 248.628 533.241 246.258 533.241C243.888 533.241 242.076 532.033 242.076 530.652C242.076 529.271 243.888 528.063 246.258 528.063Z" fill="#FFD215"/>
<path fill-rule="evenodd" clip-rule="evenodd" d="M229.529 429.381V508.844H221.165V429.381H229.529Z" fill="#3C8AFE"/>
<path fill-rule="evenodd" clip-rule="evenodd" d="M225.347 506.056C227.717 506.056 229.529 507.264 229.529 508.645C229.529 510.026 227.717 511.234 225.347 511.234C222.977 511.234 221.165 510.026 221.165 508.645C221.165 507.264 222.977 506.056 225.347 506.056Z" fill="#3C8AFE"/>
<path fill-rule="evenodd" clip-rule="evenodd" d="M225.347 427.987C227.717 427.987 229.529 428.638 229.529 429.381C229.529 430.125 227.717 430.775 225.347 430.775C222.977 430.775 221.165 430.125 221.165 429.381C221.165 428.638 222.977 427.987 225.347 427.987Z" fill="#06AFFF"/>
<path fill-rule="evenodd" clip-rule="evenodd" d="M271.352 404.288V451.687H262.987V404.288H271.352Z" fill="#17CE8A"/>
<path fill-rule="evenodd" clip-rule="evenodd" d="M267.17 448.898C269.54 448.898 271.352 450.107 271.352 451.487C271.352 452.868 269.54 454.077 267.17 454.077C264.8 454.077 262.988 452.868 262.988 451.487C262.988 450.107 264.8 448.898 267.17 448.898Z" fill="#17CE8A"/>
<path fill-rule="evenodd" clip-rule="evenodd" d="M460 303L230.5 170L1 300.5L1 327L230.5 460.5L460 327L460 303ZM230.5 354L163.5 313.95L230.5 272.5L297 315.745L230.5 354Z" fill="#4E4E4E"/>
<path d="M1 300.5L233 433.5L460 303M1 300.5L230.5 170L460 303M1 300.5L1 327L230.5 460.5L460 327L460 303M163.5 313.95L141 300.5L233 244.5L323.5 300.5L297 315.745M163.5 313.95L230.5 354L297 315.745M163.5 313.95L230.5 272.5L297 315.745" stroke="black"/>
<path fill-rule="evenodd" clip-rule="evenodd" d="M208.618 485.145V546.599H200.253V485.145H208.618Z" fill="#F32626"/>
<path fill-rule="evenodd" clip-rule="evenodd" d="M204.435 545.318C206.805 545.318 208.618 545.916 208.618 546.599C208.618 547.281 206.805 547.879 204.435 547.879C202.065 547.879 200.253 547.281 200.253 546.599C200.253 545.916 202.065 545.318 204.435 545.318Z" fill="#F32626"/>
<path fill-rule="evenodd" clip-rule="evenodd" d="M204.435 483.751C206.805 483.751 208.618 484.402 208.618 485.146C208.618 485.889 206.805 486.54 204.435 486.54C202.065 486.54 200.253 485.889 200.253 485.146C200.253 484.402 202.065 483.751 204.435 483.751Z" fill="#F67C7C"/>
<path fill-rule="evenodd" clip-rule="evenodd" d="M250.543 84.3423V292.76H242.179V84.3423H250.543Z" fill="#FFD215"/>
<path fill-rule="evenodd" clip-rule="evenodd" d="M246.258 290.37C248.628 290.37 250.44 291.578 250.44 292.959C250.44 294.34 248.628 295.548 246.258 295.548C243.888 295.548 242.076 294.34 242.076 292.959C242.076 291.578 243.888 290.37 246.258 290.37Z" fill="#FFD215"/>
<path fill-rule="evenodd" clip-rule="evenodd" d="M271.455 246.755V264.381H263.09V246.755H271.455Z" fill="#FFD215"/>
<path fill-rule="evenodd" clip-rule="evenodd" d="M267.272 262.091C269.642 262.091 271.455 263.299 271.455 264.68C271.455 266.061 269.642 267.269 267.272 267.269C264.903 267.269 263.09 266.061 263.09 264.68C263.09 263.299 264.903 262.091 267.272 262.091Z" fill="#FFD215"/>
<path fill-rule="evenodd" clip-rule="evenodd" d="M267.272 245.361C269.642 245.361 271.455 246.011 271.455 246.755C271.455 247.498 269.642 248.149 267.272 248.149C264.902 248.149 263.09 247.498 263.09 246.755C263.09 246.011 264.902 245.361 267.272 245.361Z" fill="#FFEE50"/>
<path fill-rule="evenodd" clip-rule="evenodd" d="M208.72 1.39355V19.0189H200.356V1.39355H208.72Z" fill="#FFD215"/>
<path fill-rule="evenodd" clip-rule="evenodd" d="M204.538 16.729C206.908 16.729 208.72 17.9372 208.72 19.318C208.72 20.6989 206.908 21.9071 204.538 21.9071C202.168 21.9071 200.356 20.6989 200.356 19.318C200.356 17.9372 202.168 16.729 204.538 16.729Z" fill="#FFD215"/>
<path fill-rule="evenodd" clip-rule="evenodd" d="M204.538 0C206.908 0 208.72 0.650578 208.72 1.3941C208.72 2.13761 206.908 2.78819 204.538 2.78819C202.168 2.78819 200.356 2.13761 200.356 1.3941C200.356 0.650578 202.168 0 204.538 0Z" fill="#FFEE50"/>
<path fill-rule="evenodd" clip-rule="evenodd" d="M208.72 467.918V450.293H200.356V467.918H200.384C200.365 468.017 200.356 468.116 200.356 468.217C200.356 469.598 202.168 470.806 204.538 470.806C206.908 470.806 208.72 469.598 208.72 468.217C208.72 468.116 208.711 468.017 208.692 467.918H208.72Z" fill="#17CE8A"/>
<path fill-rule="evenodd" clip-rule="evenodd" d="M271.455 157.533V218.987H263.09V157.533H271.455Z" fill="#F32626"/>
<path fill-rule="evenodd" clip-rule="evenodd" d="M267.272 156.139C269.642 156.139 271.455 156.789 271.455 157.533C271.455 158.276 269.642 158.927 267.272 158.927C264.902 158.927 263.09 158.276 263.09 157.533C263.09 156.789 264.902 156.139 267.272 156.139Z" fill="#F67C7C"/>
<path fill-rule="evenodd" clip-rule="evenodd" d="M204.538 448.899C206.908 448.899 208.72 449.55 208.72 450.293C208.72 451.037 206.908 451.687 204.538 451.687C202.168 451.687 200.356 451.037 200.356 450.293C200.356 449.55 202.168 448.899 204.538 448.899Z" fill="#42E7AA"/>
<path fill-rule="evenodd" clip-rule="evenodd" d="M271.455 471.205V488.83H263.09V471.205H271.455Z" fill="#2F80ED"/>
<path fill-rule="evenodd" clip-rule="evenodd" d="M267.272 486.54C269.642 486.54 271.455 487.748 271.455 489.129C271.455 490.51 269.642 491.718 267.272 491.718C264.902 491.718 263.09 490.51 263.09 489.129C263.09 487.748 264.902 486.54 267.272 486.54Z" fill="#2F80ED"/>
<path fill-rule="evenodd" clip-rule="evenodd" d="M267.272 469.811C269.642 469.811 271.455 470.461 271.455 471.205C271.455 471.948 269.642 472.599 267.272 472.599C264.902 472.599 263.09 471.948 263.09 471.205C263.09 470.461 264.902 469.811 267.272 469.811Z" fill="#47D2FF"/>
<path fill-rule="evenodd" clip-rule="evenodd" d="M271.455 57.1577V74.7831H263.09V57.1577H271.455Z" fill="#2F80ED"/>
<path fill-rule="evenodd" clip-rule="evenodd" d="M267.272 72.4927C269.642 72.4927 271.455 73.7009 271.455 75.0817C271.455 76.4625 269.642 77.6707 267.272 77.6707C264.902 77.6707 263.09 76.4625 263.09 75.0817C263.09 73.7009 264.902 72.4927 267.272 72.4927Z" fill="#2F80ED"/>
<path fill-rule="evenodd" clip-rule="evenodd" d="M267.272 55.7642C269.642 55.7642 271.455 56.4147 271.455 57.1583C271.455 57.9018 269.642 58.5524 267.272 58.5524C264.902 58.5524 263.09 57.9018 263.09 57.1583C263.09 56.4147 264.902 55.7642 267.272 55.7642Z" fill="#47D2FF"/>
<path fill-rule="evenodd" clip-rule="evenodd" d="M271.455 507.451V539.017C268.188 539.017 266.357 539.017 263.09 539.017V507.451H271.455Z" fill="#FF5256"/>
<path fill-rule="evenodd" clip-rule="evenodd" d="M267.272 536.727C269.642 536.727 271.455 537.935 271.455 539.316C271.455 540.697 269.642 541.905 267.272 541.905C264.902 541.905 263.09 540.697 263.09 539.316C263.09 537.935 264.902 536.727 267.272 536.727Z" fill="#FF5256"/>
<path fill-rule="evenodd" clip-rule="evenodd" d="M267.272 506.057C269.642 506.057 271.455 506.707 271.455 507.451C271.455 508.194 269.642 508.845 267.272 508.845C264.902 508.845 263.09 508.194 263.09 507.451C263.09 506.707 264.902 506.057 267.272 506.057Z" fill="#F67C7C"/>
<path fill-rule="evenodd" clip-rule="evenodd" d="M250.543 39.0342V49.6891C247.277 49.6891 245.445 49.6891 242.179 49.6891V39.0342H250.543Z" fill="#FF5256"/>
<path fill-rule="evenodd" clip-rule="evenodd" d="M246.361 47.3989C248.731 47.3989 250.543 48.6071 250.543 49.988C250.543 51.3688 248.731 52.577 246.361 52.577C243.991 52.577 242.179 51.3688 242.179 49.988C242.179 48.6071 243.991 47.3989 246.361 47.3989Z" fill="#FF5256"/>
<path fill-rule="evenodd" clip-rule="evenodd" d="M246.361 37.6406C248.731 37.6406 250.543 38.2912 250.543 39.0347C250.543 39.7782 248.731 40.4288 246.361 40.4288C243.991 40.4288 242.179 39.7782 242.179 39.0347C242.179 38.2912 243.991 37.6406 246.361 37.6406Z" fill="#F67C7C"/>
<path fill-rule="evenodd" clip-rule="evenodd" d="M250.543 310.883V328.509H242.179V310.883H250.543Z" fill="#2F80ED"/>
<path fill-rule="evenodd" clip-rule="evenodd" d="M246.361 326.218C248.731 326.218 250.543 327.426 250.543 328.807C250.543 330.188 248.731 331.396 246.361 331.396C243.991 331.396 242.179 330.188 242.179 328.807C242.179 327.426 243.991 326.218 246.361 326.218Z" fill="#2F80ED"/>
<path fill-rule="evenodd" clip-rule="evenodd" d="M246.361 309.489C248.731 309.489 250.543 310.14 250.543 310.883C250.543 311.627 248.731 312.277 246.361 312.277C243.991 312.277 242.179 311.627 242.179 310.883C242.179 310.14 243.991 309.489 246.361 309.489Z" fill="#47D2FF"/>
<path fill-rule="evenodd" clip-rule="evenodd" d="M246.361 82.9487C248.731 82.9487 250.543 83.5993 250.543 84.3428C250.543 85.0863 248.731 85.7369 246.361 85.7369C243.991 85.7369 242.179 85.0863 242.179 84.3428C242.179 83.5993 243.991 82.9487 246.361 82.9487Z" fill="#FFEE50"/>
<path fill-rule="evenodd" clip-rule="evenodd" d="M229.529 12.5464V179.838H221.165V12.5464H229.529Z" fill="#3C8AFE"/>
<path fill-rule="evenodd" clip-rule="evenodd" d="M225.347 177.448C227.717 177.448 229.529 178.656 229.529 180.037C229.529 181.418 227.717 182.626 225.347 182.626C222.977 182.626 221.165 181.418 221.165 180.037C221.165 178.656 222.977 177.448 225.347 177.448Z" fill="#3C8AFE"/>
<path fill-rule="evenodd" clip-rule="evenodd" d="M225.347 11.1523C227.717 11.1523 229.529 11.8029 229.529 12.5464C229.529 13.29 227.717 13.9405 225.347 13.9405C222.977 13.9405 221.165 13.29 221.165 12.5464C221.165 11.8029 222.977 11.1523 225.347 11.1523Z" fill="#06AFFF"/>
<path fill-rule="evenodd" clip-rule="evenodd" d="M208.618 243.966V323.43H200.253V243.966H208.618Z" fill="#3C8AFE"/>
<path fill-rule="evenodd" clip-rule="evenodd" d="M204.435 320.642C206.805 320.642 208.618 321.85 208.618 323.231C208.618 324.612 206.805 325.82 204.435 325.82C202.065 325.82 200.253 324.612 200.253 323.231C200.253 321.85 202.065 320.642 204.435 320.642Z" fill="#3C8AFE"/>
<path fill-rule="evenodd" clip-rule="evenodd" d="M204.435 242.572C206.805 242.572 208.618 243.223 208.618 243.966C208.618 244.71 206.805 245.36 204.435 245.36C202.065 245.36 200.253 244.71 200.253 243.966C200.253 243.223 202.065 242.572 204.435 242.572Z" fill="#06AFFF"/>
<path fill-rule="evenodd" clip-rule="evenodd" d="M229.529 210.509V257.908H221.165V210.509H229.529Z" fill="#17CE8A"/>
<path fill-rule="evenodd" clip-rule="evenodd" d="M225.347 255.12C227.717 255.12 229.529 256.328 229.529 257.709C229.529 259.09 227.717 260.298 225.347 260.298C222.977 260.298 221.165 259.09 221.165 257.709C221.165 256.328 222.977 255.12 225.347 255.12Z" fill="#17CE8A"/>
<path fill-rule="evenodd" clip-rule="evenodd" d="M225.347 209.114C227.717 209.114 229.529 209.765 229.529 210.508C229.529 211.252 227.717 211.902 225.347 211.902C222.977 211.902 221.165 211.252 221.165 210.508C221.165 209.765 222.977 209.114 225.347 209.114Z" fill="#42E7AA"/>
<path fill-rule="evenodd" clip-rule="evenodd" d="M271.352 100.375V138.016H262.988V100.375H271.352Z" fill="#17CE8A"/>
<path fill-rule="evenodd" clip-rule="evenodd" d="M267.17 135.228C269.54 135.228 271.352 136.436 271.352 137.817C271.352 139.197 269.54 140.406 267.17 140.406C264.8 140.406 262.988 139.197 262.988 137.817C262.988 136.436 264.8 135.228 267.17 135.228Z" fill="#17CE8A"/>
<path fill-rule="evenodd" clip-rule="evenodd" d="M267.17 98.981C269.54 98.981 271.352 99.6315 271.352 100.375C271.352 101.119 269.54 101.769 267.17 101.769C264.8 101.769 262.987 101.119 262.987 100.375C262.987 99.6315 264.8 98.981 267.17 98.981Z" fill="#42E7AA"/>
<path fill-rule="evenodd" clip-rule="evenodd" d="M271.352 285.789V329.703L262.988 334.582V285.789H271.352Z" fill="#17CE8A"/>
<path fill-rule="evenodd" clip-rule="evenodd" d="M267.17 284.396C269.54 284.396 271.352 285.046 271.352 285.79C271.352 286.533 269.54 287.184 267.17 287.184C264.8 287.184 262.987 286.533 262.987 285.79C262.987 285.046 264.8 284.396 267.17 284.396Z" fill="#42E7AA"/>
<path fill-rule="evenodd" clip-rule="evenodd" d="M229.529 298.336V352.899L221.165 348.014V298.336H229.529Z" fill="#F32626"/>
<path fill-rule="evenodd" clip-rule="evenodd" d="M225.347 296.942C227.717 296.942 229.529 297.593 229.529 298.336C229.529 299.08 227.717 299.731 225.347 299.731C222.977 299.731 221.165 299.08 221.165 298.336C221.165 297.593 222.977 296.942 225.347 296.942Z" fill="#F67C7C"/>
<path fill-rule="evenodd" clip-rule="evenodd" d="M208.618 55.7637V196.567H200.253V55.7637H208.618Z" fill="#F32626"/>
<path fill-rule="evenodd" clip-rule="evenodd" d="M204.435 195.4C206.805 195.4 208.618 195.998 208.618 196.681C208.618 197.364 206.805 197.961 204.435 197.961C202.065 197.961 200.253 197.364 200.253 196.681C200.253 195.998 202.065 195.4 204.435 195.4Z" fill="#F32626"/>
<path fill-rule="evenodd" clip-rule="evenodd" d="M204.435 54.3696C206.805 54.3696 208.618 55.0202 208.618 55.7637C208.618 56.5072 206.805 57.1578 204.435 57.1578C202.065 57.1578 200.253 56.5072 200.253 55.7637C200.253 55.0202 202.065 54.3696 204.435 54.3696Z" fill="#F67C7C"/>
</svg>
