<svg width="540" height="343" viewBox="0 0 540 343" fill="none" xmlns="http://www.w3.org/2000/svg">
<path fill-rule="evenodd" clip-rule="evenodd" d="M439.485 0.440578L426.648 0.416012C426.648 0.416012 341.583 170.95 342.311 172.224L428.302 341.918L439.878 341.918C439.878 341.918 441.532 341.918 442.359 340.264L538.479 173.589C539.207 172.315 539.207 170.314 538.479 169.04L441.942 1.44144C441.214 0.167616 439.485 0.440578 439.485 0.440578Z" fill="#4E4E4E"/>
<path fill-rule="evenodd" clip-rule="evenodd" d="M424.994 1.24309L329.622 169.214C328.894 170.488 328.894 172.49 329.622 173.764L426.648 341.069C427.376 342.343 428.559 342.343 429.286 341.069L524.607 175.22C525.335 173.946 525.335 171.944 524.607 170.67L427.633 1.33408C426.905 0.0602569 425.722 -0.0307302 424.994 1.24309Z" fill="#606060"/>
<path d="M385.224 135.688L363.82 173.146L383.084 208.463L405.558 172.076L385.224 135.688Z" fill="#1D1D1D" fill-opacity="0.05"/>
<path d="M424.841 200.065L403.436 236.453L423.77 272.84L445.175 236.453L424.841 200.065Z" fill="#1D1D1D" fill-opacity="0.05"/>
<path d="M426.491 69.6606L405.087 107.119L424.351 142.436L446.825 106.048L426.491 69.6606Z" fill="#1D1D1D" fill-opacity="0.05"/>
<path d="M464.457 134.038L443.053 171.496L462.317 206.813L484.791 170.425L464.457 134.038Z" fill="#1D1D1D" fill-opacity="0.05"/>
<path d="M319.197 135.688L297.792 173.146L317.056 208.464L339.531 172.076L319.197 135.688Z" fill="#F67C7C"/>
<path d="M319.196 135.688L362.006 135.688L383.41 172.076L339.531 172.076L319.196 135.688Z" fill="#DE2424"/>
<path d="M339.531 172.076L317.056 208.464L361.15 208.464L383.41 172.076L339.531 172.076Z" fill="#F32626"/>
<path d="M358.813 200.065L337.408 236.453L357.743 272.841L379.147 236.453L358.813 200.065Z" fill="#06AFFF"/>
<path d="M358.812 200.065L401.621 200.065L423.026 236.453L379.147 236.453L358.812 200.065Z" fill="#2F80ED"/>
<path d="M379.147 236.453L357.743 272.841L400.766 272.841L423.027 236.453L379.147 236.453Z" fill="#3C8AFE"/>
<path d="M371.323 56.333L348.293 96.6346L369.02 134.633L393.201 95.4832L371.323 56.333Z" fill="#9A5CFC"/>
<path d="M371.323 56.332L417.382 56.332L440.411 95.4822L393.201 95.4822L371.323 56.332Z" fill="#7421F7"/>
<path d="M393.201 95.4829L369.02 134.633L416.461 134.633L440.412 95.4829L393.201 95.4829Z" fill="#8338F9"/>
<path d="M398.43 134.038L377.025 171.496L396.289 206.813L418.764 170.425L398.43 134.038Z" fill="#FFEE50"/>
<path d="M398.429 134.038L441.238 134.038L462.643 170.425L418.763 170.425L398.429 134.038Z" fill="#CCBA11"/>
<path d="M418.764 170.425L396.289 206.813L440.383 206.813L462.643 170.425L418.764 170.425Z" fill="#FFD215"/>
<path d="M268.168 139.333L248.668 173.458L266.218 205.633L286.693 172.483L268.168 139.333Z" fill="#9A5CFC"/>
<path d="M268.168 139.332L307.168 139.332L326.668 172.482L286.693 172.482L268.168 139.332Z" fill="#7421F7"/>
<path d="M286.693 172.482L266.218 205.633L306.388 205.633L326.669 172.482L286.693 172.482Z" fill="#8338F9"/>
<path d="M292.785 200.065L271.381 237.523L290.645 272.841L313.12 236.453L292.785 200.065Z" fill="#FFEE50"/>
<path d="M292.785 200.065L335.594 200.065L356.998 236.453L313.119 236.453L292.785 200.065Z" fill="#CCBA11"/>
<path d="M313.12 236.453L290.645 272.841L334.738 272.841L356.999 236.453L313.12 236.453Z" fill="#FFD215"/>
<path d="M345.607 1.98291L324.203 39.4408L343.467 74.7583L365.942 38.3706L345.607 1.98291Z" fill="#F67C7C"/>
<path d="M345.607 1.98291L388.416 1.98291L409.821 38.3706L365.941 38.3706L345.607 1.98291Z" fill="#DE2424"/>
<path d="M365.942 38.3706L343.467 74.7583L387.56 74.7583L409.821 38.3706L365.942 38.3706Z" fill="#F32626"/>
<path d="M337.354 135.688L315.95 172.076L336.284 208.464L357.688 172.076L337.354 135.688Z" fill="#06AFFF"/>
<path d="M337.354 135.688L380.163 135.688L401.568 172.076L357.688 172.076L337.354 135.688Z" fill="#2F80ED"/>
<path d="M357.689 172.076L336.284 208.464L379.307 208.464L401.568 172.076L357.689 172.076Z" fill="#3C8AFE"/>
<path d="M192.093 206.813L170.689 169.355L189.953 134.038L212.428 170.425L192.093 206.813Z" fill="#F67C7C"/>
<path d="M192.093 206.813L234.902 206.813L256.306 170.425L212.427 170.425L192.093 206.813Z" fill="#DE2424"/>
<path d="M212.428 170.425L189.953 134.038L234.046 134.038L256.307 170.425L212.428 170.425Z" fill="#F32626"/>
<path d="M231.71 142.436L210.306 106.048L230.64 69.6606L252.045 106.048L231.71 142.436Z" fill="#06AFFF"/>
<path d="M231.709 142.436L274.519 142.436L295.923 106.048L252.044 106.048L231.709 142.436Z" fill="#2F80ED"/>
<path d="M252.044 106.048L230.64 69.6606L273.663 69.6606L295.924 106.048L252.044 106.048Z" fill="#3C8AFE"/>
<path d="M212.499 251.333L188.293 293.693L210.079 333.633L235.495 292.483L212.499 251.333Z" fill="#9A5CFC"/>
<path d="M212.499 251.332L260.911 251.332L285.117 292.482L235.495 292.482L212.499 251.332Z" fill="#7421F7"/>
<path d="M235.495 292.483L210.079 333.633L259.943 333.633L285.118 292.483L235.495 292.483Z" fill="#8338F9"/>
<path d="M325.799 287.697L304.395 250.239L323.659 214.921L346.133 251.309L325.799 287.697Z" fill="#FFEE50"/>
<path d="M325.799 287.697L368.608 287.697L390.012 251.309L346.133 251.309L325.799 287.697Z" fill="#CCBA11"/>
<path d="M346.134 251.309L323.659 214.921L367.752 214.921L390.013 251.309L346.134 251.309Z" fill="#FFD215"/>
<path d="M129.367 206.813L107.963 169.355L127.227 134.038L149.702 170.425L129.367 206.813Z" fill="#42E7AA"/>
<path d="M129.367 206.813L172.176 206.813L193.581 170.425L149.702 170.425L129.367 206.813Z" fill="#16A568"/>
<path d="M149.702 170.425L127.227 134.038L171.321 134.038L193.581 170.425L149.702 170.425Z" fill="#17CE8A"/>
<path d="M165.682 142.436L144.278 104.978L163.542 69.6606L186.017 106.048L165.682 142.436Z" fill="#FFEE50"/>
<path d="M165.682 142.436L208.491 142.436L229.896 106.048L186.017 106.048L165.682 142.436Z" fill="#CCBA11"/>
<path d="M186.017 106.048L163.542 69.6606L207.636 69.6606L229.896 106.048L186.017 106.048Z" fill="#FFD215"/>
<path d="M170.634 272.841L149.23 235.383L168.494 200.065L190.969 236.453L170.634 272.841Z" fill="#F67C7C"/>
<path d="M170.634 272.841L213.444 272.841L234.848 236.453L190.969 236.453L170.634 272.841Z" fill="#DE2424"/>
<path d="M190.969 236.453L168.494 200.065L212.588 200.065L234.848 236.453L190.969 236.453Z" fill="#F32626"/>
<path d="M210.251 206.813L188.846 170.425L209.181 134.038L230.585 170.425L210.251 206.813Z" fill="#06AFFF"/>
<path d="M210.25 206.813L253.059 206.813L274.464 170.425L230.585 170.425L210.25 206.813Z" fill="#2F80ED"/>
<path d="M230.585 170.425L209.181 134.038L252.204 134.038L274.464 170.425L230.585 170.425Z" fill="#3C8AFE"/>
<path fill-rule="evenodd" clip-rule="evenodd" d="M111.078 0.440578L98.2407 0.416012C98.2407 0.416012 13.1756 170.95 13.9035 172.224L99.8945 341.918L111.471 341.918C111.471 341.918 113.125 341.918 113.951 340.264L210.072 173.589C210.8 172.315 210.8 170.314 210.072 169.04L113.534 1.44144C112.806 0.167616 111.078 0.440578 111.078 0.440578Z" fill="#606060"/>
<path fill-rule="evenodd" clip-rule="evenodd" d="M96.5862 1.24309L1.2139 169.214C0.486002 170.488 0.486002 172.49 1.2139 173.764L98.2399 341.069C98.9678 342.343 100.151 342.343 100.879 341.069L196.199 175.22C196.927 173.946 196.927 171.944 196.199 170.67L99.2248 1.33408C98.4969 0.0602569 97.3141 -0.0307302 96.5862 1.24309Z" fill="#4E4E4E"/>
<path d="M469.512 147.333L454.668 173.31L468.028 197.803L483.614 172.568L469.512 147.333Z" fill="#9A5CFC"/>
<path d="M469.512 147.332L499.201 147.332L514.045 172.567L483.614 172.567L469.512 147.332Z" fill="#7421F7"/>
<path d="M483.614 172.567L468.028 197.803L498.607 197.803L514.045 172.567L483.614 172.567Z" fill="#8338F9"/>
</svg>
