<svg width="714" height="664" viewBox="0 0 714 664" fill="none" xmlns="http://www.w3.org/2000/svg">
<g opacity="0.2">
<path d="M351.115 319.247L368.259 309.451L384.422 318.267L367.769 328.553L351.115 319.247Z" fill="url(#paint0_linear_310_398)"/>
<path d="M351.115 319.248V338.84L367.769 348.636V328.554L351.115 319.248Z" fill="url(#paint1_linear_310_398)"/>
<path d="M367.769 328.553L384.423 318.267V338.447L367.769 348.635V328.553Z" fill="url(#paint2_linear_310_398)"/>
</g>
<g opacity="0.4">
<path d="M351.115 290.518L368.259 280.722L384.422 289.538L367.769 299.824L351.115 290.518Z" fill="url(#paint3_linear_310_398)"/>
<path d="M351.115 290.518V310.11L367.769 319.907V299.824L351.115 290.518Z" fill="url(#paint4_linear_310_398)"/>
<path d="M367.769 299.824L384.423 289.538V309.718L367.769 319.906V299.824Z" fill="url(#paint5_linear_310_398)"/>
</g>
<g opacity="0.6">
<path d="M351.115 259.327L368.259 249.531L384.422 258.347L367.769 268.633L351.115 259.327Z" fill="url(#paint6_linear_310_398)"/>
<path d="M351.115 259.327V278.919L367.769 288.716V268.634L351.115 259.327Z" fill="url(#paint7_linear_310_398)"/>
<path d="M367.769 268.633L384.423 258.347V278.527L367.769 288.715V268.633Z" fill="url(#paint8_linear_310_398)"/>
</g>
<g opacity="0.8">
<path d="M351.115 230.598L368.258 220.802L384.422 229.618L367.768 239.904L351.115 230.598Z" fill="url(#paint9_linear_310_398)"/>
<path d="M351.115 230.598V250.19L367.768 259.987V239.905L351.115 230.598Z" fill="url(#paint10_linear_310_398)"/>
<path d="M367.769 239.904L384.422 229.618V249.798L367.769 259.986V239.904Z" fill="url(#paint11_linear_310_398)"/>
</g>
<path fill-rule="evenodd" clip-rule="evenodd" d="M495 161.395L367.347 87.417L239.693 160.004L239.693 174.744L367.347 249L495 174.744L495 161.395ZM367.347 189.762L330.08 167.485L367.347 144.43L404.336 168.484L367.347 189.762Z" fill="#4E4E4E"/>
<path d="M239.693 160.004L368.737 233.982L495 161.395M239.693 160.004L367.347 87.417L495 161.395M239.693 160.004L239.693 174.744L367.347 249L495 174.744L495 161.395M330.08 167.485L317.565 160.004L368.737 128.856L419.075 160.004L404.336 168.484M330.08 167.485L367.347 189.762L404.336 168.484M330.08 167.485L367.347 144.43L404.336 168.484" stroke="black"/>
<path d="M390.826 91.1236L410.292 80L428.646 90.0112L409.736 101.691L390.826 91.1236Z" fill="white"/>
<path d="M390.826 91.124V128.944L409.736 140.068V101.691L390.826 91.124Z" fill="#F7F7F7"/>
<path d="M409.736 101.691L428.646 90.0112V128.499L409.736 140.067V101.691Z" fill="#E9E9EB"/>
<path fill-rule="evenodd" clip-rule="evenodd" d="M399.517 101.4C400.848 101.001 402.511 102.066 403.243 103.862C403.974 105.658 403.442 107.388 402.112 107.853C400.781 108.252 399.118 107.188 398.386 105.392C397.655 103.596 398.187 101.866 399.517 101.4Z" fill="#17CE8A"/>
<path fill-rule="evenodd" clip-rule="evenodd" d="M400.186 101.4C401.116 101.4 403.443 103.845 403.443 106.052C403.443 106.367 402.047 107.913 402.047 107.913L370.749 137.838C370.749 137.838 358.499 138.468 350.992 125.228C344.907 114.51 349.49 104.423 352.572 104.738L398.79 101.865C398.79 101.865 399.256 101.4 400.186 101.4Z" fill="url(#paint12_linear_310_398)"/>
<g opacity="0.9">
<path d="M351.116 166.574L368.259 156.778L384.423 165.595L367.769 175.881L351.116 166.574Z" fill="url(#paint13_linear_310_398)"/>
<path d="M351.115 166.575V179.6L367.768 189.397V175.881L351.115 166.575Z" fill="url(#paint14_linear_310_398)"/>
<path d="M367.769 175.88L384.422 165.594V179.208L367.769 189.396V175.88Z" fill="url(#paint15_linear_310_398)"/>
</g>
<path d="M351.115 137.845L368.258 128.049L384.422 136.865L367.769 147.151L351.115 137.845Z" fill="url(#paint16_linear_310_398)"/>
<path d="M351.115 137.846V157.438L367.769 167.234V147.152L351.115 137.846Z" fill="url(#paint17_linear_310_398)"/>
<path d="M367.769 147.151L384.423 136.865V157.045L367.769 167.233V147.151Z" fill="url(#paint18_linear_310_398)"/>
<path d="M351.115 106.686L368.259 96.8896L384.422 105.706L367.769 115.992L351.115 106.686Z" fill="#42E7AA"/>
<path d="M351.115 106.687V126.279L367.769 136.075V115.993L351.115 106.687Z" fill="#16A568"/>
<path d="M367.769 115.992L384.423 105.706V125.886L367.769 136.074V115.992Z" fill="#17CE8A"/>
<path d="M351.129 76.1834L368.272 66.3872L384.436 75.2038L367.782 85.4897L351.129 76.1834Z" fill="#F67C7C"/>
<path d="M351.129 76.1836V95.7759L367.782 105.572V85.49L351.129 76.1836Z" fill="#DE2424"/>
<path d="M367.782 85.4891L384.436 75.2031V95.3832L367.782 105.571V85.4891Z" fill="#F32626"/>
<path d="M351.115 43.887L368.259 34.0908L384.422 42.9074L367.769 53.1933L351.115 43.887Z" fill="#06AFFF"/>
<path d="M351.115 43.8872V63.4795L367.769 73.2757V53.1936L351.115 43.8872Z" fill="#2F80ED"/>
<path d="M367.769 53.1927L384.423 42.9067V63.0868L367.769 73.2749V53.1927Z" fill="#3C8AFE"/>
<path d="M351.115 9.79617L368.258 0L384.422 8.81655L367.768 19.1025L351.115 9.79617Z" fill="#FFEE50"/>
<path d="M351.115 9.79639V29.3887L367.768 39.1849V19.1027L351.115 9.79639Z" fill="#CCBA11"/>
<path d="M367.769 19.1024L384.422 8.81641V28.9965L367.769 39.1845V19.1024Z" fill="#FFD215"/>
<g opacity="0.2">
<path d="M605.268 285.33L618.514 277.761L631.003 284.574L618.136 292.521L605.268 285.33Z" fill="url(#paint19_linear_310_398)"/>
<path d="M605.268 285.331V300.469L618.136 308.038V292.521L605.268 285.331Z" fill="url(#paint20_linear_310_398)"/>
<path d="M618.136 292.521L631.004 284.574V300.166L618.136 308.038V292.521Z" fill="url(#paint21_linear_310_398)"/>
</g>
<g opacity="0.4">
<path d="M605.268 263.132L618.514 255.562L631.003 262.375L618.136 270.322L605.268 263.132Z" fill="url(#paint22_linear_310_398)"/>
<path d="M605.268 263.132V278.27L618.136 285.839V270.323L605.268 263.132Z" fill="url(#paint23_linear_310_398)"/>
<path d="M618.136 270.323L631.004 262.375V277.968L618.136 285.84V270.323Z" fill="url(#paint24_linear_310_398)"/>
</g>
<g opacity="0.6">
<path d="M605.268 239.031L618.514 231.462L631.003 238.274L618.136 246.222L605.268 239.031Z" fill="url(#paint25_linear_310_398)"/>
<path d="M605.268 239.031V254.17L618.136 261.739V246.222L605.268 239.031Z" fill="url(#paint26_linear_310_398)"/>
<path d="M618.136 246.222L631.004 238.274V253.867L618.136 261.739V246.222Z" fill="url(#paint27_linear_310_398)"/>
</g>
<g opacity="0.8">
<path d="M605.268 216.833L618.514 209.264L631.003 216.076L618.136 224.024L605.268 216.833Z" fill="url(#paint28_linear_310_398)"/>
<path d="M605.268 216.833V231.972L618.136 239.541V224.024L605.268 216.833Z" fill="url(#paint29_linear_310_398)"/>
<path d="M618.136 224.024L631.004 216.077V231.669L618.136 239.541V224.024Z" fill="url(#paint30_linear_310_398)"/>
</g>
<path fill-rule="evenodd" clip-rule="evenodd" d="M713 164.044L617.5 108.7L522 163.003L522 174.031L617.5 229.583L713 174.031L713 164.044ZM617.5 185.266L589.62 168.6L617.5 151.352L645.172 169.347L617.5 185.266Z" fill="#4E4E4E"/>
<path d="M522 163.003L618.54 218.348L713 164.044M522 163.003L617.5 108.7L713 164.044M522 163.003L522 174.031L617.5 229.583L713 174.031L713 164.044M589.62 168.6L580.257 163.003L618.54 139.701L656.199 163.003L645.172 169.347M589.62 168.6L617.5 185.266L645.172 169.347M589.62 168.6L617.5 151.352L645.172 169.347" stroke="black"/>
<path d="M634.091 110.595L649.132 102L663.313 109.735L648.702 118.76L634.091 110.595Z" fill="white"/>
<path d="M634.091 110.595V139.817L648.702 148.412V118.76L634.091 110.595Z" fill="#F7F7F7"/>
<path d="M648.702 118.759L663.313 109.735V139.473L648.702 148.412V118.759Z" fill="#E9E9EB"/>
<path fill-rule="evenodd" clip-rule="evenodd" d="M640.806 118.535C641.834 118.227 643.119 119.049 643.684 120.437C644.25 121.825 643.838 123.161 642.81 123.521C641.782 123.83 640.497 123.007 639.932 121.619C639.366 120.232 639.778 118.895 640.806 118.535Z" fill="#17CE8A"/>
<path fill-rule="evenodd" clip-rule="evenodd" d="M641.323 118.535C642.041 118.535 643.839 120.425 643.839 122.13C643.839 122.373 642.76 123.568 642.76 123.568L618.577 146.69C618.577 146.69 609.112 147.177 603.312 136.947C598.61 128.665 602.151 120.871 604.533 121.114L640.244 118.895C640.244 118.895 640.604 118.535 641.323 118.535Z" fill="url(#paint31_linear_310_398)"/>
<g opacity="0.9">
<path d="M605.268 167.364L618.514 159.794L631.003 166.607L618.136 174.554L605.268 167.364Z" fill="url(#paint32_linear_310_398)"/>
<path d="M605.268 167.364V177.428L618.136 184.998V174.555L605.268 167.364Z" fill="url(#paint33_linear_310_398)"/>
<path d="M618.136 174.555L631.004 166.607V177.126L618.136 184.998V174.555Z" fill="url(#paint34_linear_310_398)"/>
</g>
<path d="M605.268 145.166L618.514 137.597L631.003 144.409L618.136 152.357L605.268 145.166Z" fill="url(#paint35_linear_310_398)"/>
<path d="M605.268 145.166V160.304L618.136 167.874V152.357L605.268 145.166Z" fill="url(#paint36_linear_310_398)"/>
<path d="M618.136 152.357L631.004 144.409V160.002L618.136 167.874V152.357Z" fill="url(#paint37_linear_310_398)"/>
<path d="M605.799 121.491L619.045 113.922L631.534 120.734L618.666 128.682L605.799 121.491Z" fill="#FFEE50"/>
<path d="M605.798 121.492V136.63L618.666 144.199V128.682L605.798 121.492Z" fill="#CCBA11"/>
<path d="M618.666 128.682L631.534 120.734V136.327L618.666 144.199V128.682Z" fill="#FFD215"/>
<path d="M605.799 97.2816L619.045 89.7124L631.534 96.5247L618.666 104.472L605.799 97.2816Z" fill="#06AFFF"/>
<path d="M605.798 97.2822V112.421L618.666 119.99V104.473L605.798 97.2822Z" fill="#2F80ED"/>
<path d="M618.666 104.473L631.534 96.5254V112.118L618.666 119.99V104.473Z" fill="#3C8AFE"/>
<path d="M605.278 72.162L618.525 64.5928L631.014 71.4051L618.146 79.3527L605.278 72.162Z" fill="#F67C7C"/>
<path d="M605.279 72.1621V87.3005L618.146 94.8698V79.3529L605.279 72.1621Z" fill="#DE2424"/>
<path d="M618.146 79.3529L631.014 71.4053V86.9979L618.146 94.8698V79.3529Z" fill="#F32626"/>
<path d="M605.268 48.8368L618.514 41.2676L631.003 48.0799L618.136 56.0276L605.268 48.8368Z" fill="#42E7AA"/>
<path d="M605.268 48.8374V63.9758L618.136 71.5451V56.0282L605.268 48.8374Z" fill="#16A568"/>
<path d="M618.136 56.0282L631.004 48.0806V63.6731L618.136 71.5451V56.0282Z" fill="#17CE8A"/>
<g opacity="0.2">
<path d="M516.231 565.669L538.707 552.825L559.899 564.384L538.065 577.87L516.231 565.669Z" fill="url(#paint38_linear_310_398)"/>
<path d="M516.231 565.669V591.356L538.065 604.2V577.87L516.231 565.669Z" fill="url(#paint39_linear_310_398)"/>
<path d="M538.066 577.87L559.9 564.384V590.842L538.066 604.199V577.87Z" fill="url(#paint40_linear_310_398)"/>
</g>
<g opacity="0.4">
<path d="M516.231 528.004L538.707 515.16L559.899 526.719L538.065 540.205L516.231 528.004Z" fill="url(#paint41_linear_310_398)"/>
<path d="M516.231 528.004V553.691L538.065 566.535V540.205L516.231 528.004Z" fill="url(#paint42_linear_310_398)"/>
<path d="M538.066 540.205L559.9 526.719V553.177L538.066 566.534V540.205Z" fill="url(#paint43_linear_310_398)"/>
</g>
<g opacity="0.6">
<path d="M516.231 487.109L538.707 474.266L559.899 485.825L538.065 499.311L516.231 487.109Z" fill="url(#paint44_linear_310_398)"/>
<path d="M516.231 487.109V512.797L538.065 525.64V499.311L516.231 487.109Z" fill="url(#paint45_linear_310_398)"/>
<path d="M538.066 499.31L559.9 485.825V512.282L538.066 525.64V499.31Z" fill="url(#paint46_linear_310_398)"/>
</g>
<g opacity="0.8">
<path d="M516.231 449.443L538.707 436.599L559.899 448.158L538.065 461.644L516.231 449.443Z" fill="url(#paint47_linear_310_398)"/>
<path d="M516.231 449.443V475.13L538.065 487.974V461.644L516.231 449.443Z" fill="url(#paint48_linear_310_398)"/>
<path d="M538.066 461.644L559.9 448.158V474.616L538.066 487.973V461.644Z" fill="url(#paint49_linear_310_398)"/>
</g>
<path fill-rule="evenodd" clip-rule="evenodd" d="M704.32 358.625L537.66 262.042L371 356.81L371 376.054L537.66 473L704.32 376.054L704.32 358.625ZM537.66 395.661L489.005 366.577L537.66 336.477L585.952 367.88L537.66 395.661Z" fill="#4E4E4E"/>
<path d="M371 356.81L539.476 453.393L704.32 358.625M371 356.81L537.66 262.042L704.32 358.625M371 356.81L371 376.054L537.66 473L704.32 376.054L704.32 358.625M489.005 366.577L472.666 356.81L539.476 316.143L605.196 356.81L585.952 367.88M489.005 366.577L537.66 395.661L585.952 367.88M489.005 366.577L537.66 336.477L585.952 367.88" stroke="black"/>
<path d="M568.149 268.584L593.671 254L617.734 267.126L592.941 282.439L568.149 268.584Z" fill="white"/>
<path d="M568.149 268.583V318.169L592.941 332.753V282.438L568.149 268.583Z" fill="#F7F7F7"/>
<path d="M592.941 282.439L617.734 267.126V317.586L592.941 332.754V282.439Z" fill="#E9E9EB"/>
<path fill-rule="evenodd" clip-rule="evenodd" d="M579.544 282.057C581.288 281.534 583.468 282.93 584.428 285.284C585.387 287.639 584.689 289.907 582.945 290.518C581.201 291.041 579.02 289.645 578.061 287.29C577.101 284.936 577.799 282.668 579.544 282.057Z" fill="#17CE8A"/>
<path fill-rule="evenodd" clip-rule="evenodd" d="M580.42 282.057C581.64 282.057 584.69 285.263 584.69 288.156C584.69 288.57 582.86 290.596 582.86 290.596L541.825 329.83C541.825 329.83 525.766 330.657 515.922 313.298C507.944 299.246 513.954 286.02 517.995 286.434L578.59 282.667C578.59 282.667 579.2 282.057 580.42 282.057Z" fill="url(#paint50_linear_310_398)"/>
<g opacity="0.9">
<path d="M516.231 365.502L538.707 352.658L559.899 364.217L538.065 377.703L516.231 365.502Z" fill="url(#paint51_linear_310_398)"/>
<path d="M516.231 365.502V382.58L538.065 395.423V377.703L516.231 365.502Z" fill="url(#paint52_linear_310_398)"/>
<path d="M538.066 377.703L559.9 364.217V382.066L538.066 395.423V377.703Z" fill="url(#paint53_linear_310_398)"/>
</g>
<path d="M516.231 327.836L538.707 314.992L559.899 326.551L538.065 340.037L516.231 327.836Z" fill="url(#paint54_linear_310_398)"/>
<path d="M516.231 327.836V353.523L538.065 366.367V340.037L516.231 327.836Z" fill="url(#paint55_linear_310_398)"/>
<path d="M538.066 340.037L559.9 326.551V353.009L538.066 366.366V340.037Z" fill="url(#paint56_linear_310_398)"/>
<path d="M516.231 287.363L538.707 274.52L559.899 286.079L538.065 299.565L516.231 287.363Z" fill="#06AFFF"/>
<path d="M516.231 287.363V313.05L538.065 325.894V299.565L516.231 287.363Z" fill="#2F80ED"/>
<path d="M538.066 299.565L559.9 286.079V312.537L538.066 325.894V299.565Z" fill="#3C8AFE"/>
<path d="M516.231 247.123L538.707 234.28L559.899 245.839L538.065 259.325L516.231 247.123Z" fill="#42E7AA"/>
<path d="M516.231 247.124V272.811L538.065 285.654V259.325L516.231 247.124Z" fill="#16A568"/>
<path d="M538.066 259.325L559.9 245.839V272.297L538.066 285.654V259.325Z" fill="#17CE8A"/>
<path d="M516.231 204.076L538.707 191.233L559.899 202.792L538.065 216.278L516.231 204.076Z" fill="#FFEE50"/>
<path d="M516.231 204.077V229.764L538.065 242.607V216.278L516.231 204.077Z" fill="#CCBA11"/>
<path d="M538.066 216.278L559.9 202.792V229.25L538.066 242.608V216.278Z" fill="#FFD215"/>
<path d="M516.248 159.972L538.724 147.128L559.916 158.687L538.082 172.173L516.248 159.972Z" fill="#F67C7C"/>
<path d="M516.248 159.972V185.659L538.082 198.502V172.173L516.248 159.972Z" fill="#DE2424"/>
<path d="M538.082 172.173L559.916 158.687V185.145L538.082 198.502V172.173Z" fill="#F32626"/>
<g opacity="0.2">
<path d="M192.88 614.206L221.92 597.611L249.301 612.546L221.091 629.97L192.88 614.206Z" fill="url(#paint57_linear_310_398)"/>
<path d="M192.88 614.206V647.394L221.091 663.988V629.97L192.88 614.206Z" fill="url(#paint58_linear_310_398)"/>
<path d="M221.091 629.97L249.301 612.546V646.73L221.091 663.988V629.97Z" fill="url(#paint59_linear_310_398)"/>
</g>
<g opacity="0.4">
<path d="M192.881 565.541L221.92 548.947L249.301 563.882L221.091 581.306L192.881 565.541Z" fill="url(#paint60_linear_310_398)"/>
<path d="M192.88 565.541V598.729L221.09 615.324V581.306L192.88 565.541Z" fill="url(#paint61_linear_310_398)"/>
<path d="M221.091 581.306L249.301 563.882V598.066L221.091 615.324V581.306Z" fill="url(#paint62_linear_310_398)"/>
</g>
<g opacity="0.6">
<path d="M192.88 512.704L221.92 496.11L249.301 511.045L221.091 528.469L192.88 512.704Z" fill="url(#paint63_linear_310_398)"/>
<path d="M192.88 512.705V545.893L221.09 562.487V528.469L192.88 512.705Z" fill="url(#paint64_linear_310_398)"/>
<path d="M221.091 528.469L249.301 511.045V545.229L221.091 562.487V528.469Z" fill="url(#paint65_linear_310_398)"/>
</g>
<g opacity="0.8">
<path d="M192.881 464.037L221.92 447.442L249.301 462.377L221.091 479.801L192.881 464.037Z" fill="url(#paint66_linear_310_398)"/>
<path d="M192.88 464.037V497.225L221.09 513.819V479.801L192.88 464.037Z" fill="url(#paint67_linear_310_398)"/>
<path d="M221.091 479.801L249.301 462.377V496.562L221.091 513.82V479.801Z" fill="url(#paint68_linear_310_398)"/>
</g>
<path fill-rule="evenodd" clip-rule="evenodd" d="M441 345.495L221 218L1 343.098L1 368.501L221 496.475L441 368.501L441 345.495ZM221 394.384L156.773 355.991L221 316.257L284.747 357.712L221 394.384Z" fill="#4E4E4E"/>
<path d="M1 343.098L223.397 470.593L441 345.495M1 343.098L221 218L441 345.495M1 343.098L1 368.501L221 496.475L441 368.501L441 345.495M156.773 355.991L135.205 343.098L223.397 289.416L310.15 343.098L284.747 357.712M156.773 355.991L221 394.384L284.747 357.712M156.773 355.991L221 316.257L284.747 357.712" stroke="black"/>
<path d="M265.545 225.843L298.52 207L329.611 223.959L297.578 243.743L265.545 225.843Z" fill="white"/>
<path d="M265.545 225.843V289.909L297.578 308.752V243.744L265.545 225.843Z" fill="#F7F7F7"/>
<path d="M297.578 243.744L329.61 223.959V289.155L297.578 308.752V243.744Z" fill="#E9E9EB"/>
<path fill-rule="evenodd" clip-rule="evenodd" d="M280.268 243.251C282.522 242.575 285.339 244.378 286.578 247.42C287.818 250.463 286.916 253.393 284.663 254.182C282.409 254.858 279.592 253.055 278.352 250.012C277.113 246.97 278.014 244.04 280.268 243.251Z" fill="#17CE8A"/>
<path fill-rule="evenodd" clip-rule="evenodd" d="M281.401 243.25C282.977 243.25 286.917 247.393 286.917 251.131C286.917 251.665 284.553 254.283 284.553 254.283L231.535 304.975C231.535 304.975 210.785 306.043 198.068 283.615C187.76 265.459 195.524 248.371 200.745 248.905L279.036 244.039C279.036 244.039 279.825 243.25 281.401 243.25Z" fill="url(#paint69_linear_310_398)"/>
<g opacity="0.9">
<path d="M192.88 355.585L221.92 338.991L249.3 353.926L221.09 371.349L192.88 355.585Z" fill="url(#paint70_linear_310_398)"/>
<path d="M192.88 355.585V377.65L221.09 394.244V371.349L192.88 355.585Z" fill="url(#paint71_linear_310_398)"/>
<path d="M221.09 371.35L249.3 353.926V376.986L221.09 394.244V371.35Z" fill="url(#paint72_linear_310_398)"/>
</g>
<path d="M192.881 306.919L221.92 290.325L249.301 305.26L221.091 322.684L192.881 306.919Z" fill="url(#paint73_linear_310_398)"/>
<path d="M192.88 306.919V340.108L221.09 356.702V322.684L192.88 306.919Z" fill="url(#paint74_linear_310_398)"/>
<path d="M221.091 322.684L249.301 305.26V339.444L221.091 356.702V322.684Z" fill="url(#paint75_linear_310_398)"/>
<path d="M192.903 254.083L221.942 237.489L249.323 252.424L221.113 269.848L192.903 254.083Z" fill="#F67C7C"/>
<path d="M192.903 254.083V287.271L221.113 303.866V269.848L192.903 254.083Z" fill="#DE2424"/>
<path d="M221.113 269.848L249.323 252.424V286.608L221.113 303.866V269.848Z" fill="#F32626"/>
<path d="M192.881 202.637L221.92 186.042L249.301 200.977L221.091 218.401L192.881 202.637Z" fill="#42E7AA"/>
<path d="M192.88 202.637V235.825L221.09 252.419V218.401L192.88 202.637Z" fill="#16A568"/>
<path d="M221.091 218.401L249.301 200.978V235.162L221.091 252.42V218.401Z" fill="#17CE8A"/>
<path d="M192.881 147.019L221.92 130.425L249.301 145.36L221.091 162.784L192.881 147.019Z" fill="#FFEE50"/>
<path d="M192.88 147.019V180.207L221.09 196.802V162.784L192.88 147.019Z" fill="#CCBA11"/>
<path d="M221.091 162.784L249.301 145.36V179.544L221.091 196.802V162.784Z" fill="#FFD215"/>
<path d="M192.881 90.0112L221.92 73.417L249.301 88.3518L221.091 105.776L192.881 90.0112Z" fill="#06AFFF"/>
<path d="M192.88 90.0112V123.2L221.09 139.794V105.776L192.88 90.0112Z" fill="#2F80ED"/>
<path d="M221.091 105.776L249.301 88.3516V122.536L221.091 139.794V105.776Z" fill="#3C8AFE"/>
<defs>
<linearGradient id="paint0_linear_310_398" x1="367.77" y1="309.451" x2="367.77" y2="328.556" gradientUnits="userSpaceOnUse">
<stop stop-color="#E8E8E8"/>
<stop offset="1" stop-color="#727272"/>
</linearGradient>
<linearGradient id="paint1_linear_310_398" x1="359.442" y1="319.248" x2="359.442" y2="348.641" gradientUnits="userSpaceOnUse">
<stop stop-color="#E8E8E8"/>
<stop offset="1" stop-color="#727272"/>
</linearGradient>
<linearGradient id="paint2_linear_310_398" x1="376.096" y1="318.267" x2="376.096" y2="348.64" gradientUnits="userSpaceOnUse">
<stop stop-color="#E8E8E8"/>
<stop offset="1" stop-color="#727272"/>
</linearGradient>
<linearGradient id="paint3_linear_310_398" x1="367.77" y1="280.722" x2="367.77" y2="299.827" gradientUnits="userSpaceOnUse">
<stop stop-color="#E8E8E8"/>
<stop offset="1" stop-color="#727272"/>
</linearGradient>
<linearGradient id="paint4_linear_310_398" x1="359.442" y1="290.518" x2="359.442" y2="319.911" gradientUnits="userSpaceOnUse">
<stop stop-color="#E8E8E8"/>
<stop offset="1" stop-color="#727272"/>
</linearGradient>
<linearGradient id="paint5_linear_310_398" x1="376.096" y1="289.538" x2="376.096" y2="319.91" gradientUnits="userSpaceOnUse">
<stop stop-color="#E8E8E8"/>
<stop offset="1" stop-color="#727272"/>
</linearGradient>
<linearGradient id="paint6_linear_310_398" x1="367.77" y1="249.531" x2="367.77" y2="268.636" gradientUnits="userSpaceOnUse">
<stop stop-color="#E8E8E8"/>
<stop offset="1" stop-color="#727272"/>
</linearGradient>
<linearGradient id="paint7_linear_310_398" x1="359.442" y1="259.327" x2="359.442" y2="288.72" gradientUnits="userSpaceOnUse">
<stop stop-color="#E8E8E8"/>
<stop offset="1" stop-color="#727272"/>
</linearGradient>
<linearGradient id="paint8_linear_310_398" x1="376.096" y1="258.347" x2="376.096" y2="288.719" gradientUnits="userSpaceOnUse">
<stop stop-color="#E8E8E8"/>
<stop offset="1" stop-color="#727272"/>
</linearGradient>
<linearGradient id="paint9_linear_310_398" x1="367.769" y1="220.802" x2="367.769" y2="239.907" gradientUnits="userSpaceOnUse">
<stop stop-color="#E8E8E8"/>
<stop offset="1" stop-color="#727272"/>
</linearGradient>
<linearGradient id="paint10_linear_310_398" x1="359.442" y1="230.598" x2="359.442" y2="259.991" gradientUnits="userSpaceOnUse">
<stop stop-color="#E8E8E8"/>
<stop offset="1" stop-color="#727272"/>
</linearGradient>
<linearGradient id="paint11_linear_310_398" x1="376.096" y1="229.618" x2="376.096" y2="259.99" gradientUnits="userSpaceOnUse">
<stop stop-color="#E8E8E8"/>
<stop offset="1" stop-color="#727272"/>
</linearGradient>
<linearGradient id="paint12_linear_310_398" x1="403.787" y1="101.135" x2="358.004" y2="124.486" gradientUnits="userSpaceOnUse">
<stop stop-color="#17CE8A" stop-opacity="0.46"/>
<stop offset="1" stop-color="#17CE8A" stop-opacity="0"/>
</linearGradient>
<linearGradient id="paint13_linear_310_398" x1="367.77" y1="156.778" x2="367.77" y2="175.884" gradientUnits="userSpaceOnUse">
<stop stop-color="#E8E8E8"/>
<stop offset="1" stop-color="#727272"/>
</linearGradient>
<linearGradient id="paint14_linear_310_398" x1="359.442" y1="166.575" x2="359.442" y2="189.4" gradientUnits="userSpaceOnUse">
<stop stop-color="#E8E8E8"/>
<stop offset="1" stop-color="#727272"/>
</linearGradient>
<linearGradient id="paint15_linear_310_398" x1="376.096" y1="165.594" x2="376.096" y2="189.399" gradientUnits="userSpaceOnUse">
<stop stop-color="#E8E8E8"/>
<stop offset="1" stop-color="#727272"/>
</linearGradient>
<linearGradient id="paint16_linear_310_398" x1="367.769" y1="128.049" x2="367.769" y2="147.154" gradientUnits="userSpaceOnUse">
<stop stop-color="#E8E8E8"/>
<stop offset="1" stop-color="#727272"/>
</linearGradient>
<linearGradient id="paint17_linear_310_398" x1="359.442" y1="137.846" x2="359.442" y2="167.239" gradientUnits="userSpaceOnUse">
<stop stop-color="#E8E8E8"/>
<stop offset="1" stop-color="#727272"/>
</linearGradient>
<linearGradient id="paint18_linear_310_398" x1="376.096" y1="136.865" x2="376.096" y2="167.238" gradientUnits="userSpaceOnUse">
<stop stop-color="#E8E8E8"/>
<stop offset="1" stop-color="#727272"/>
</linearGradient>
<linearGradient id="paint19_linear_310_398" x1="618.136" y1="277.761" x2="618.136" y2="292.523" gradientUnits="userSpaceOnUse">
<stop stop-color="#E8E8E8"/>
<stop offset="1" stop-color="#727272"/>
</linearGradient>
<linearGradient id="paint20_linear_310_398" x1="611.702" y1="285.331" x2="611.702" y2="308.042" gradientUnits="userSpaceOnUse">
<stop stop-color="#E8E8E8"/>
<stop offset="1" stop-color="#727272"/>
</linearGradient>
<linearGradient id="paint21_linear_310_398" x1="624.57" y1="284.574" x2="624.57" y2="308.042" gradientUnits="userSpaceOnUse">
<stop stop-color="#E8E8E8"/>
<stop offset="1" stop-color="#727272"/>
</linearGradient>
<linearGradient id="paint22_linear_310_398" x1="618.136" y1="255.562" x2="618.136" y2="270.325" gradientUnits="userSpaceOnUse">
<stop stop-color="#E8E8E8"/>
<stop offset="1" stop-color="#727272"/>
</linearGradient>
<linearGradient id="paint23_linear_310_398" x1="611.702" y1="263.132" x2="611.702" y2="285.843" gradientUnits="userSpaceOnUse">
<stop stop-color="#E8E8E8"/>
<stop offset="1" stop-color="#727272"/>
</linearGradient>
<linearGradient id="paint24_linear_310_398" x1="624.57" y1="262.375" x2="624.57" y2="285.843" gradientUnits="userSpaceOnUse">
<stop stop-color="#E8E8E8"/>
<stop offset="1" stop-color="#727272"/>
</linearGradient>
<linearGradient id="paint25_linear_310_398" x1="618.136" y1="231.462" x2="618.136" y2="246.224" gradientUnits="userSpaceOnUse">
<stop stop-color="#E8E8E8"/>
<stop offset="1" stop-color="#727272"/>
</linearGradient>
<linearGradient id="paint26_linear_310_398" x1="611.702" y1="239.031" x2="611.702" y2="261.742" gradientUnits="userSpaceOnUse">
<stop stop-color="#E8E8E8"/>
<stop offset="1" stop-color="#727272"/>
</linearGradient>
<linearGradient id="paint27_linear_310_398" x1="624.57" y1="238.274" x2="624.57" y2="261.743" gradientUnits="userSpaceOnUse">
<stop stop-color="#E8E8E8"/>
<stop offset="1" stop-color="#727272"/>
</linearGradient>
<linearGradient id="paint28_linear_310_398" x1="618.136" y1="209.264" x2="618.136" y2="224.026" gradientUnits="userSpaceOnUse">
<stop stop-color="#E8E8E8"/>
<stop offset="1" stop-color="#727272"/>
</linearGradient>
<linearGradient id="paint29_linear_310_398" x1="611.702" y1="216.833" x2="611.702" y2="239.545" gradientUnits="userSpaceOnUse">
<stop stop-color="#E8E8E8"/>
<stop offset="1" stop-color="#727272"/>
</linearGradient>
<linearGradient id="paint30_linear_310_398" x1="624.57" y1="216.077" x2="624.57" y2="239.545" gradientUnits="userSpaceOnUse">
<stop stop-color="#E8E8E8"/>
<stop offset="1" stop-color="#727272"/>
</linearGradient>
<linearGradient id="paint31_linear_310_398" x1="644.105" y1="118.33" x2="608.729" y2="136.373" gradientUnits="userSpaceOnUse">
<stop stop-color="#17CE8A" stop-opacity="0.46"/>
<stop offset="1" stop-color="#17CE8A" stop-opacity="0"/>
</linearGradient>
<linearGradient id="paint32_linear_310_398" x1="618.136" y1="159.794" x2="618.136" y2="174.557" gradientUnits="userSpaceOnUse">
<stop stop-color="#E8E8E8"/>
<stop offset="1" stop-color="#727272"/>
</linearGradient>
<linearGradient id="paint33_linear_310_398" x1="611.702" y1="167.364" x2="611.702" y2="185" gradientUnits="userSpaceOnUse">
<stop stop-color="#E8E8E8"/>
<stop offset="1" stop-color="#727272"/>
</linearGradient>
<linearGradient id="paint34_linear_310_398" x1="624.57" y1="166.607" x2="624.57" y2="185" gradientUnits="userSpaceOnUse">
<stop stop-color="#E8E8E8"/>
<stop offset="1" stop-color="#727272"/>
</linearGradient>
<linearGradient id="paint35_linear_310_398" x1="618.136" y1="137.597" x2="618.136" y2="152.359" gradientUnits="userSpaceOnUse">
<stop stop-color="#E8E8E8"/>
<stop offset="1" stop-color="#727272"/>
</linearGradient>
<linearGradient id="paint36_linear_310_398" x1="611.702" y1="145.166" x2="611.702" y2="167.877" gradientUnits="userSpaceOnUse">
<stop stop-color="#E8E8E8"/>
<stop offset="1" stop-color="#727272"/>
</linearGradient>
<linearGradient id="paint37_linear_310_398" x1="624.57" y1="144.409" x2="624.57" y2="167.877" gradientUnits="userSpaceOnUse">
<stop stop-color="#E8E8E8"/>
<stop offset="1" stop-color="#727272"/>
</linearGradient>
<linearGradient id="paint38_linear_310_398" x1="538.066" y1="552.825" x2="538.066" y2="577.874" gradientUnits="userSpaceOnUse">
<stop stop-color="#E8E8E8"/>
<stop offset="1" stop-color="#727272"/>
</linearGradient>
<linearGradient id="paint39_linear_310_398" x1="527.149" y1="565.669" x2="527.149" y2="604.205" gradientUnits="userSpaceOnUse">
<stop stop-color="#E8E8E8"/>
<stop offset="1" stop-color="#727272"/>
</linearGradient>
<linearGradient id="paint40_linear_310_398" x1="548.983" y1="564.384" x2="548.983" y2="604.205" gradientUnits="userSpaceOnUse">
<stop stop-color="#E8E8E8"/>
<stop offset="1" stop-color="#727272"/>
</linearGradient>
<linearGradient id="paint41_linear_310_398" x1="538.066" y1="515.16" x2="538.066" y2="540.209" gradientUnits="userSpaceOnUse">
<stop stop-color="#E8E8E8"/>
<stop offset="1" stop-color="#727272"/>
</linearGradient>
<linearGradient id="paint42_linear_310_398" x1="527.149" y1="528.004" x2="527.149" y2="566.54" gradientUnits="userSpaceOnUse">
<stop stop-color="#E8E8E8"/>
<stop offset="1" stop-color="#727272"/>
</linearGradient>
<linearGradient id="paint43_linear_310_398" x1="548.983" y1="526.719" x2="548.983" y2="566.54" gradientUnits="userSpaceOnUse">
<stop stop-color="#E8E8E8"/>
<stop offset="1" stop-color="#727272"/>
</linearGradient>
<linearGradient id="paint44_linear_310_398" x1="538.066" y1="474.266" x2="538.066" y2="499.314" gradientUnits="userSpaceOnUse">
<stop stop-color="#E8E8E8"/>
<stop offset="1" stop-color="#727272"/>
</linearGradient>
<linearGradient id="paint45_linear_310_398" x1="527.149" y1="487.109" x2="527.149" y2="525.646" gradientUnits="userSpaceOnUse">
<stop stop-color="#E8E8E8"/>
<stop offset="1" stop-color="#727272"/>
</linearGradient>
<linearGradient id="paint46_linear_310_398" x1="548.983" y1="485.825" x2="548.983" y2="525.646" gradientUnits="userSpaceOnUse">
<stop stop-color="#E8E8E8"/>
<stop offset="1" stop-color="#727272"/>
</linearGradient>
<linearGradient id="paint47_linear_310_398" x1="538.066" y1="436.599" x2="538.066" y2="461.648" gradientUnits="userSpaceOnUse">
<stop stop-color="#E8E8E8"/>
<stop offset="1" stop-color="#727272"/>
</linearGradient>
<linearGradient id="paint48_linear_310_398" x1="527.149" y1="449.443" x2="527.149" y2="487.979" gradientUnits="userSpaceOnUse">
<stop stop-color="#E8E8E8"/>
<stop offset="1" stop-color="#727272"/>
</linearGradient>
<linearGradient id="paint49_linear_310_398" x1="548.983" y1="448.158" x2="548.983" y2="487.979" gradientUnits="userSpaceOnUse">
<stop stop-color="#E8E8E8"/>
<stop offset="1" stop-color="#727272"/>
</linearGradient>
<linearGradient id="paint50_linear_310_398" x1="585.142" y1="281.71" x2="525.116" y2="312.325" gradientUnits="userSpaceOnUse">
<stop stop-color="#17CE8A" stop-opacity="0.46"/>
<stop offset="1" stop-color="#17CE8A" stop-opacity="0"/>
</linearGradient>
<linearGradient id="paint51_linear_310_398" x1="538.066" y1="352.658" x2="538.066" y2="377.707" gradientUnits="userSpaceOnUse">
<stop stop-color="#E8E8E8"/>
<stop offset="1" stop-color="#727272"/>
</linearGradient>
<linearGradient id="paint52_linear_310_398" x1="527.149" y1="365.502" x2="527.149" y2="395.428" gradientUnits="userSpaceOnUse">
<stop stop-color="#E8E8E8"/>
<stop offset="1" stop-color="#727272"/>
</linearGradient>
<linearGradient id="paint53_linear_310_398" x1="548.983" y1="364.217" x2="548.983" y2="395.428" gradientUnits="userSpaceOnUse">
<stop stop-color="#E8E8E8"/>
<stop offset="1" stop-color="#727272"/>
</linearGradient>
<linearGradient id="paint54_linear_310_398" x1="538.066" y1="314.992" x2="538.066" y2="340.041" gradientUnits="userSpaceOnUse">
<stop stop-color="#E8E8E8"/>
<stop offset="1" stop-color="#727272"/>
</linearGradient>
<linearGradient id="paint55_linear_310_398" x1="527.149" y1="327.836" x2="527.149" y2="366.372" gradientUnits="userSpaceOnUse">
<stop stop-color="#E8E8E8"/>
<stop offset="1" stop-color="#727272"/>
</linearGradient>
<linearGradient id="paint56_linear_310_398" x1="548.983" y1="326.551" x2="548.983" y2="366.372" gradientUnits="userSpaceOnUse">
<stop stop-color="#E8E8E8"/>
<stop offset="1" stop-color="#727272"/>
</linearGradient>
<linearGradient id="paint57_linear_310_398" x1="221.092" y1="597.611" x2="221.092" y2="629.975" gradientUnits="userSpaceOnUse">
<stop stop-color="#E8E8E8"/>
<stop offset="1" stop-color="#727272"/>
</linearGradient>
<linearGradient id="paint58_linear_310_398" x1="206.986" y1="614.206" x2="206.986" y2="663.996" gradientUnits="userSpaceOnUse">
<stop stop-color="#E8E8E8"/>
<stop offset="1" stop-color="#727272"/>
</linearGradient>
<linearGradient id="paint59_linear_310_398" x1="235.196" y1="612.546" x2="235.196" y2="663.996" gradientUnits="userSpaceOnUse">
<stop stop-color="#E8E8E8"/>
<stop offset="1" stop-color="#727272"/>
</linearGradient>
<linearGradient id="paint60_linear_310_398" x1="221.092" y1="548.947" x2="221.092" y2="581.31" gradientUnits="userSpaceOnUse">
<stop stop-color="#E8E8E8"/>
<stop offset="1" stop-color="#727272"/>
</linearGradient>
<linearGradient id="paint61_linear_310_398" x1="206.986" y1="565.541" x2="206.986" y2="615.331" gradientUnits="userSpaceOnUse">
<stop stop-color="#E8E8E8"/>
<stop offset="1" stop-color="#727272"/>
</linearGradient>
<linearGradient id="paint62_linear_310_398" x1="235.196" y1="563.882" x2="235.196" y2="615.332" gradientUnits="userSpaceOnUse">
<stop stop-color="#E8E8E8"/>
<stop offset="1" stop-color="#727272"/>
</linearGradient>
<linearGradient id="paint63_linear_310_398" x1="221.092" y1="496.11" x2="221.092" y2="528.473" gradientUnits="userSpaceOnUse">
<stop stop-color="#E8E8E8"/>
<stop offset="1" stop-color="#727272"/>
</linearGradient>
<linearGradient id="paint64_linear_310_398" x1="206.986" y1="512.705" x2="206.986" y2="562.495" gradientUnits="userSpaceOnUse">
<stop stop-color="#E8E8E8"/>
<stop offset="1" stop-color="#727272"/>
</linearGradient>
<linearGradient id="paint65_linear_310_398" x1="235.196" y1="511.045" x2="235.196" y2="562.495" gradientUnits="userSpaceOnUse">
<stop stop-color="#E8E8E8"/>
<stop offset="1" stop-color="#727272"/>
</linearGradient>
<linearGradient id="paint66_linear_310_398" x1="221.092" y1="447.442" x2="221.092" y2="479.806" gradientUnits="userSpaceOnUse">
<stop stop-color="#E8E8E8"/>
<stop offset="1" stop-color="#727272"/>
</linearGradient>
<linearGradient id="paint67_linear_310_398" x1="206.986" y1="464.037" x2="206.986" y2="513.827" gradientUnits="userSpaceOnUse">
<stop stop-color="#E8E8E8"/>
<stop offset="1" stop-color="#727272"/>
</linearGradient>
<linearGradient id="paint68_linear_310_398" x1="235.196" y1="462.377" x2="235.196" y2="513.827" gradientUnits="userSpaceOnUse">
<stop stop-color="#E8E8E8"/>
<stop offset="1" stop-color="#727272"/>
</linearGradient>
<linearGradient id="paint69_linear_310_398" x1="287.501" y1="242.801" x2="209.946" y2="282.357" gradientUnits="userSpaceOnUse">
<stop stop-color="#17CE8A" stop-opacity="0.46"/>
<stop offset="1" stop-color="#17CE8A" stop-opacity="0"/>
</linearGradient>
<linearGradient id="paint70_linear_310_398" x1="221.091" y1="338.991" x2="221.091" y2="371.354" gradientUnits="userSpaceOnUse">
<stop stop-color="#E8E8E8"/>
<stop offset="1" stop-color="#727272"/>
</linearGradient>
<linearGradient id="paint71_linear_310_398" x1="206.986" y1="355.585" x2="206.986" y2="394.25" gradientUnits="userSpaceOnUse">
<stop stop-color="#E8E8E8"/>
<stop offset="1" stop-color="#727272"/>
</linearGradient>
<linearGradient id="paint72_linear_310_398" x1="235.196" y1="353.926" x2="235.196" y2="394.25" gradientUnits="userSpaceOnUse">
<stop stop-color="#E8E8E8"/>
<stop offset="1" stop-color="#727272"/>
</linearGradient>
<linearGradient id="paint73_linear_310_398" x1="221.092" y1="290.325" x2="221.092" y2="322.689" gradientUnits="userSpaceOnUse">
<stop stop-color="#E8E8E8"/>
<stop offset="1" stop-color="#727272"/>
</linearGradient>
<linearGradient id="paint74_linear_310_398" x1="206.986" y1="306.919" x2="206.986" y2="356.71" gradientUnits="userSpaceOnUse">
<stop stop-color="#E8E8E8"/>
<stop offset="1" stop-color="#727272"/>
</linearGradient>
<linearGradient id="paint75_linear_310_398" x1="235.196" y1="305.26" x2="235.196" y2="356.71" gradientUnits="userSpaceOnUse">
<stop stop-color="#E8E8E8"/>
<stop offset="1" stop-color="#727272"/>
</linearGradient>
</defs>
</svg>
