<svg width="681" height="466" viewBox="0 0 681 466" fill="none" xmlns="http://www.w3.org/2000/svg">
<path fill-rule="evenodd" clip-rule="evenodd" d="M120.091 241.405L16.9457 239.479L17.1019 231.116L120.247 233.042L120.091 241.405Z" fill="#FFD215"/>
<path fill-rule="evenodd" clip-rule="evenodd" d="M20.1109 235.355C20.0666 237.724 18.8248 239.514 17.4442 239.488C16.0636 239.462 14.8894 237.628 14.9337 235.258C14.978 232.889 16.2198 231.099 17.6004 231.125C18.981 231.151 20.1551 232.985 20.1109 235.355Z" fill="#FFD215"/>
<path fill-rule="evenodd" clip-rule="evenodd" d="M119.088 220.472L39.6385 218.988L39.7947 210.625L119.244 212.109L119.088 220.472Z" fill="#3C8AFE"/>
<path fill-rule="evenodd" clip-rule="evenodd" d="M42.5044 214.859C42.4602 217.228 41.2183 219.018 39.8377 218.992C38.4572 218.966 37.283 217.131 37.3272 214.762C37.3715 212.392 38.6134 210.603 39.9939 210.629C41.3745 210.654 42.5487 212.489 42.5044 214.859Z" fill="#3C8AFE"/>
<path fill-rule="evenodd" clip-rule="evenodd" d="M120.56 216.317C120.515 218.686 119.831 220.486 119.088 220.472C118.344 220.458 117.728 218.634 117.772 216.265C117.816 213.895 118.5 212.095 119.244 212.109C119.987 212.123 120.604 213.947 120.56 216.317Z" fill="#06AFFF"/>
<path fill-rule="evenodd" clip-rule="evenodd" d="M143.396 262.756L96.005 261.871L96.1612 253.508L143.552 254.393L143.396 262.756Z" fill="#17CE8A"/>
<path fill-rule="evenodd" clip-rule="evenodd" d="M98.8709 257.742C98.8266 260.111 97.5848 261.901 96.2042 261.875C94.8236 261.849 93.6494 260.014 93.6937 257.645C93.738 255.275 94.9798 253.486 96.3604 253.512C97.741 253.537 98.9151 255.372 98.8709 257.742Z" fill="#17CE8A"/>
<path fill-rule="evenodd" clip-rule="evenodd" d="M63.7244 198.522L2.28109 197.375L2.43729 189.012L63.8806 190.159L63.7244 198.522Z" fill="#F32626"/>
<path fill-rule="evenodd" clip-rule="evenodd" d="M3.63967 193.217C3.59541 195.587 2.96421 197.387 2.2815 197.375C1.5988 197.362 1.03528 195.539 1.07953 193.169C1.12379 190.8 1.755 188.999 2.4377 189.011C3.12041 189.024 3.68393 190.847 3.63967 193.217Z" fill="#F32626"/>
<path fill-rule="evenodd" clip-rule="evenodd" d="M65.1958 194.367C65.1516 196.736 64.4673 198.536 63.7239 198.522C62.9805 198.509 62.3639 196.684 62.4081 194.315C62.4524 191.945 63.1367 190.145 63.8801 190.159C64.6235 190.173 65.2401 191.997 65.1958 194.367Z" fill="#F67C7C"/>
<path fill-rule="evenodd" clip-rule="evenodd" d="M300.899 265.801L283.277 265.472L283.433 257.109L301.055 257.438L300.899 265.801Z" fill="#FFD215"/>
<path fill-rule="evenodd" clip-rule="evenodd" d="M285.645 261.333C285.601 263.703 284.359 265.492 282.978 265.466C281.598 265.441 280.423 263.606 280.468 261.236C280.512 258.867 281.754 257.077 283.134 257.103C284.515 257.129 285.689 258.964 285.645 261.333Z" fill="#FFD215"/>
<path fill-rule="evenodd" clip-rule="evenodd" d="M302.372 261.645C302.327 264.015 301.643 265.815 300.9 265.801C300.156 265.787 299.54 263.963 299.584 261.593C299.628 259.224 300.312 257.424 301.056 257.438C301.799 257.452 302.416 259.276 302.372 261.645Z" fill="#FFEE50"/>
<path fill-rule="evenodd" clip-rule="evenodd" d="M547.389 207.66L529.767 207.33L529.923 198.967L547.546 199.296L547.389 207.66Z" fill="#FFD215"/>
<path fill-rule="evenodd" clip-rule="evenodd" d="M532.135 203.192C532.091 205.561 530.849 207.351 529.468 207.325C528.088 207.299 526.914 205.464 526.958 203.095C527.002 200.725 528.244 198.936 529.625 198.962C531.005 198.987 532.179 200.822 532.135 203.192Z" fill="#FFD215"/>
<path fill-rule="evenodd" clip-rule="evenodd" d="M548.861 203.504C548.817 205.873 548.133 207.673 547.389 207.659C546.646 207.645 546.029 205.821 546.073 203.452C546.118 201.082 546.802 199.282 547.545 199.296C548.289 199.31 548.905 201.134 548.861 203.504Z" fill="#FFEE50"/>
<path fill-rule="evenodd" clip-rule="evenodd" d="M80.9464 198.947L98.5687 199.276L98.7249 190.913L81.1026 190.584L81.102 190.613C81.0041 190.592 80.9046 190.581 80.8041 190.579C79.4235 190.553 78.1817 192.342 78.1374 194.712C78.0932 197.081 79.2673 198.916 80.6479 198.942C80.7484 198.944 80.8482 198.936 80.9469 198.919L80.9464 198.947Z" fill="#17CE8A"/>
<path fill-rule="evenodd" clip-rule="evenodd" d="M100.041 195.121C99.9965 197.491 99.3122 199.29 98.5688 199.277C97.8255 199.263 97.2088 197.438 97.2531 195.069C97.2973 192.699 97.9817 190.9 98.725 190.913C99.4684 190.927 100.085 192.751 100.041 195.121Z" fill="#42E7AA"/>
<path fill-rule="evenodd" clip-rule="evenodd" d="M76.4895 261.609L58.8673 261.28L59.0235 252.917L76.6458 253.246L76.4895 261.609Z" fill="#2F80ED"/>
<path fill-rule="evenodd" clip-rule="evenodd" d="M61.2349 257.142C61.1906 259.511 59.9488 261.301 58.5682 261.275C57.1876 261.249 56.0135 259.414 56.0577 257.045C56.102 254.675 57.3438 252.886 58.7244 252.912C60.105 252.937 61.2791 254.772 61.2349 257.142Z" fill="#2F80ED"/>
<path fill-rule="evenodd" clip-rule="evenodd" d="M77.9612 257.454C77.9169 259.823 77.2326 261.623 76.4893 261.609C75.7459 261.595 75.1292 259.771 75.1735 257.402C75.2178 255.032 75.9021 253.232 76.6455 253.246C77.3888 253.26 78.0055 255.084 77.9612 257.454Z" fill="#47D2FF"/>
<path fill-rule="evenodd" clip-rule="evenodd" d="M490.464 269.341L472.842 269.012L472.998 260.649L490.62 260.978L490.464 269.341Z" fill="#2F80ED"/>
<path fill-rule="evenodd" clip-rule="evenodd" d="M475.21 264.873C475.165 267.243 473.924 269.032 472.543 269.007C471.162 268.981 469.988 267.146 470.033 264.777C470.077 262.407 471.319 260.618 472.699 260.644C474.08 260.669 475.254 262.504 475.21 264.873Z" fill="#2F80ED"/>
<path fill-rule="evenodd" clip-rule="evenodd" d="M491.936 265.186C491.891 267.556 491.207 269.355 490.464 269.341C489.72 269.328 489.104 267.503 489.148 265.134C489.192 262.764 489.876 260.964 490.62 260.978C491.363 260.992 491.98 262.816 491.936 265.186Z" fill="#47D2FF"/>
<path fill-rule="evenodd" clip-rule="evenodd" d="M40.2491 260.932L8.68825 260.343C8.74926 257.077 8.78346 255.246 8.84446 251.98L40.4053 252.569L40.2491 260.932Z" fill="#FF5256"/>
<path fill-rule="evenodd" clip-rule="evenodd" d="M11.0562 256.204C11.0119 258.574 9.77007 260.363 8.38949 260.337C7.00891 260.312 5.83475 258.477 5.87901 256.108C5.92326 253.738 7.16511 251.949 8.54569 251.974C9.92627 252 11.1004 253.835 11.0562 256.204Z" fill="#FF5256"/>
<path fill-rule="evenodd" clip-rule="evenodd" d="M41.7215 256.777C41.6772 259.147 40.9929 260.946 40.2495 260.933C39.5061 260.919 38.8895 259.095 38.9338 256.725C38.978 254.355 39.6623 252.556 40.4057 252.569C41.1491 252.583 41.7657 254.407 41.7215 256.777Z" fill="#F67C7C"/>
<path fill-rule="evenodd" clip-rule="evenodd" d="M508.975 248.772L498.322 248.573C498.383 245.307 498.417 243.476 498.478 240.21L509.131 240.409L508.975 248.772Z" fill="#FF5256"/>
<path fill-rule="evenodd" clip-rule="evenodd" d="M500.69 244.434C500.645 246.804 499.404 248.593 498.023 248.567C496.642 248.542 495.468 246.707 495.513 244.338C495.557 241.968 496.799 240.179 498.179 240.204C499.56 240.23 500.734 242.065 500.69 244.434Z" fill="#FF5256"/>
<path fill-rule="evenodd" clip-rule="evenodd" d="M510.447 244.617C510.402 246.986 509.718 248.786 508.975 248.772C508.231 248.758 507.615 246.934 507.659 244.565C507.703 242.195 508.387 240.395 509.131 240.409C509.874 240.423 510.491 242.247 510.447 244.617Z" fill="#F67C7C"/>
<path fill-rule="evenodd" clip-rule="evenodd" d="M237.173 243.695L219.551 243.366L219.707 235.003L237.329 235.332L237.173 243.695Z" fill="#2F80ED"/>
<path fill-rule="evenodd" clip-rule="evenodd" d="M221.919 239.227C221.874 241.597 220.633 243.386 219.252 243.361C217.871 243.335 216.697 241.5 216.742 239.131C216.786 236.761 218.028 234.972 219.408 234.998C220.789 235.023 221.963 236.858 221.919 239.227Z" fill="#2F80ED"/>
<path fill-rule="evenodd" clip-rule="evenodd" d="M238.645 239.54C238.601 241.91 237.916 243.709 237.173 243.695C236.429 243.682 235.813 241.857 235.857 239.488C235.901 237.118 236.586 235.318 237.329 235.332C238.072 235.346 238.689 237.17 238.645 239.54Z" fill="#47D2FF"/>
<path fill-rule="evenodd" clip-rule="evenodd" d="M465.146 243.77C465.102 246.14 464.417 247.94 463.674 247.926C462.931 247.912 462.314 246.088 462.358 243.718C462.403 241.349 463.087 239.549 463.83 239.563C464.574 239.576 465.19 241.401 465.146 243.77Z" fill="#FFEE50"/>
<path fill-rule="evenodd" clip-rule="evenodd" d="M337.922 224.559L290.531 223.674L290.688 215.311L338.079 216.196L337.922 224.559Z" fill="#17CE8A"/>
<path fill-rule="evenodd" clip-rule="evenodd" d="M293.397 219.545C293.353 221.914 292.111 223.704 290.73 223.678C289.35 223.652 288.176 221.817 288.22 219.448C288.264 217.078 289.506 215.289 290.887 215.315C292.267 215.34 293.441 217.175 293.397 219.545Z" fill="#17CE8A"/>
<path fill-rule="evenodd" clip-rule="evenodd" d="M339.395 220.404C339.351 222.773 338.666 224.573 337.923 224.559C337.179 224.545 336.563 222.721 336.607 220.352C336.651 217.982 337.336 216.182 338.079 216.196C338.822 216.21 339.439 218.034 339.395 220.404Z" fill="#42E7AA"/>
<path fill-rule="evenodd" clip-rule="evenodd" d="M447.256 268.431L409.622 267.729L409.778 259.365L447.412 260.068L447.256 268.431Z" fill="#17CE8A"/>
<path fill-rule="evenodd" clip-rule="evenodd" d="M412.488 263.599C412.444 265.969 411.202 267.758 409.821 267.732C408.441 267.706 407.266 265.872 407.311 263.502C407.355 261.133 408.597 259.343 409.977 259.369C411.358 259.395 412.532 261.229 412.488 263.599Z" fill="#17CE8A"/>
<path fill-rule="evenodd" clip-rule="evenodd" d="M448.728 264.276C448.684 266.645 447.999 268.445 447.256 268.431C446.512 268.417 445.896 266.593 445.94 264.224C445.984 261.854 446.669 260.054 447.412 260.068C448.155 260.082 448.772 261.906 448.728 264.276Z" fill="#42E7AA"/>
<path fill-rule="evenodd" clip-rule="evenodd" d="M250.11 222.919L195.557 221.9L200.597 213.628L250.266 214.556L250.11 222.919Z" fill="#F32626"/>
<path fill-rule="evenodd" clip-rule="evenodd" d="M251.582 218.764C251.538 221.133 250.853 222.933 250.11 222.919C249.366 222.905 248.75 221.081 248.794 218.712C248.838 216.342 249.523 214.542 250.266 214.556C251.009 214.57 251.626 216.394 251.582 218.764Z" fill="#F67C7C"/>
<path fill-rule="evenodd" clip-rule="evenodd" d="M249.49 459.999L382.5 230.505L252.01 0.998886L225.51 0.997696L91.9999 230.492L225.49 459.998L249.49 459.999ZM198.5 230.496L238.553 163.498L280 230.5L236.752 296.998L198.5 230.496Z" fill="#4E4E4E"/>
<path d="M252.01 0.998886L119 232.993L249.49 459.999M252.01 0.998886L382.5 230.505L249.49 459.999M252.01 0.998886L225.51 0.997696L91.9999 230.492L225.49 459.998L249.49 459.999M238.553 163.498L252.004 140.999L308 233.001L251.996 323.499L236.752 296.998M238.553 163.498L198.5 230.496L236.752 296.998M238.553 163.498L280 230.5L236.752 296.998" stroke="black"/>
<path fill-rule="evenodd" clip-rule="evenodd" d="M373.442 265.513L311.998 264.365L312.155 256.002L373.598 257.149L373.442 265.513Z" fill="#F32626"/>
<path fill-rule="evenodd" clip-rule="evenodd" d="M374.862 261.36C374.818 263.732 374.133 265.534 373.39 265.52C372.647 265.506 372.03 263.68 372.074 261.308C372.119 258.937 372.803 257.135 373.546 257.149C374.29 257.163 374.906 258.989 374.862 261.36Z" fill="#F67C7C"/>
<path fill-rule="evenodd" clip-rule="evenodd" d="M493.031 206.541L352.252 203.912L352.408 195.549L493.187 198.178L493.031 206.541Z" fill="#F32626"/>
<path fill-rule="evenodd" clip-rule="evenodd" d="M353.497 199.752C353.452 202.121 352.821 203.922 352.138 203.91C351.456 203.897 350.892 202.074 350.936 199.704C350.981 197.335 351.612 195.534 352.295 195.546C352.977 195.559 353.541 197.382 353.497 199.752Z" fill="#F32626"/>
<path fill-rule="evenodd" clip-rule="evenodd" d="M494.503 202.386C494.458 204.755 493.774 206.555 493.031 206.541C492.287 206.527 491.671 204.703 491.715 202.334C491.759 199.964 492.444 198.164 493.187 198.178C493.93 198.192 494.547 200.016 494.503 202.386Z" fill="#F67C7C"/>
<path fill-rule="evenodd" clip-rule="evenodd" d="M304.861 203.026L225.411 201.543L225.568 193.179L305.017 194.663L304.861 203.026Z" fill="#3C8AFE"/>
<path fill-rule="evenodd" clip-rule="evenodd" d="M228.277 197.413C228.233 199.783 226.991 201.572 225.61 201.546C224.23 201.52 223.056 199.686 223.1 197.316C223.144 194.947 224.386 193.157 225.767 193.183C227.147 193.209 228.321 195.043 228.277 197.413Z" fill="#3C8AFE"/>
<path fill-rule="evenodd" clip-rule="evenodd" d="M306.333 198.871C306.289 201.241 305.604 203.04 304.861 203.027C304.117 203.013 303.501 201.188 303.545 198.819C303.589 196.449 304.274 194.65 305.017 194.663C305.76 194.677 306.377 196.501 306.333 198.871Z" fill="#06AFFF"/>
<path fill-rule="evenodd" clip-rule="evenodd" d="M463.674 247.926L255.293 244.034L255.449 235.67L463.83 239.562L463.674 247.926Z" fill="#FFD215"/>
<path fill-rule="evenodd" clip-rule="evenodd" d="M257.762 239.794C257.718 242.163 256.476 243.953 255.096 243.927C253.715 243.901 252.541 242.067 252.585 239.697C252.629 237.328 253.871 235.538 255.252 235.564C256.632 235.59 257.806 237.424 257.762 239.794Z" fill="#FFD215"/>
<path fill-rule="evenodd" clip-rule="evenodd" d="M261.874 264.969L217.968 264.149L213.245 255.695L262.03 256.606L261.874 264.969Z" fill="#17CE8A"/>
<path fill-rule="evenodd" clip-rule="evenodd" d="M263.345 260.813C263.301 263.183 262.617 264.983 261.874 264.969C261.13 264.955 260.514 263.131 260.558 260.761C260.602 258.392 261.286 256.592 262.03 256.606C262.773 256.62 263.39 258.444 263.345 260.813Z" fill="#42E7AA"/>
<path fill-rule="evenodd" clip-rule="evenodd" d="M535.85 228.256L368.588 225.132L368.744 216.769L536.006 219.893L535.85 228.256Z" fill="#3C8AFE"/>
<path fill-rule="evenodd" clip-rule="evenodd" d="M371.056 220.995C371.011 223.365 369.77 225.154 368.389 225.128C367.008 225.102 365.834 223.268 365.879 220.898C365.923 218.529 367.165 216.739 368.545 216.765C369.926 216.791 371.1 218.625 371.056 220.995Z" fill="#3C8AFE"/>
<path fill-rule="evenodd" clip-rule="evenodd" d="M537.322 224.101C537.278 226.47 536.593 228.27 535.85 228.256C535.107 228.242 534.49 226.418 534.534 224.048C534.579 221.679 535.263 219.879 536.006 219.893C536.75 219.907 537.366 221.731 537.322 224.101Z" fill="#06AFFF"/>
<path fill-rule="evenodd" clip-rule="evenodd" d="M546.5 465.007L679.51 235.513L549.021 6.00719L522.521 6.006L389.01 235.5L522.5 465.006L546.5 465.007ZM495.51 235.505L535.563 168.507L577.01 235.508L533.763 302.007L495.51 235.505Z" fill="#4E4E4E"/>
<path d="M549.021 6.00719L416.01 238.001L546.5 465.007M549.021 6.00719L679.51 235.513L546.5 465.007M549.021 6.00719L522.521 6.006L389.01 235.5L522.5 465.006L546.5 465.007M535.563 168.507L549.014 146.007L605.01 238.01L549.006 328.507L533.763 302.007M535.563 168.507L495.51 235.505L533.763 302.007M535.563 168.507L577.01 235.508L533.763 302.007" stroke="black"/>
</svg>
